# Blender v2.91.0 OBJ File: 'map.blend'
# www.blender.org
mtllib cliff_90_concave.mtl
o cliff_90_concave_Cube.031
v 12.600000 0.000000 3.800000
v 12.700001 -0.500000 3.900000
v 12.700001 -0.100000 3.900000
v 12.800000 0.000000 3.600000
v 12.800000 -0.500000 3.700000
v 13.000000 0.000000 2.000000
v 12.800000 -0.100000 3.700000
v 11.000000 0.000000 2.000000
v 13.000000 -0.100000 3.700000
v 13.000000 -0.500000 3.700000
v 13.000000 0.000000 3.600000
v 12.700000 -0.100000 4.000000
v 12.600000 0.000000 4.000000
v 12.700000 -0.500000 4.000000
v 13.000000 -0.500000 4.000000
v 11.000000 0.000000 4.000000
vt 0.792110 0.750000
vt 0.875000 0.750000
vt 0.875000 0.750000
vt 0.792110 0.750000
vt 0.792110 0.750000
vt 0.792110 0.750000
vt 0.792110 0.750000
vt 0.875000 0.750000
vt 0.875000 0.750000
vt 0.792110 0.750000
vt 0.792110 0.750000
vt 0.792110 0.750000
vt 0.708776 0.750000
vt 0.729610 0.750000
vt 0.729610 0.750000
vt 0.708776 0.750000
vt 0.708776 0.750000
vt 0.729610 0.750000
vt 0.729610 0.750000
vt 0.708776 0.750000
vt 0.875000 0.750000
vt 0.875000 0.750000
vn 0.8944 0.0000 0.4472
vn 0.0000 0.7071 0.7071
vn 0.0000 1.0000 0.0000
vn 0.5657 0.7071 0.4243
vn 0.0000 0.0000 1.0000
vn 1.0000 0.0000 0.0000
vn 0.7071 0.7071 0.0000
usemtl Material
s off
f 7/1/1 3/2/1 2/3/1 5/4/1
f 4/5/2 7/1/2 9/6/2 11/7/2
f 1/8/3 4/5/3 8/9/3
f 4/5/4 1/8/4 3/2/4 7/1/4
f 7/1/5 5/4/5 10/10/5 9/6/5
f 5/4/3 2/3/3 10/10/3
f 4/5/3 11/7/3 6/11/3 8/12/3
f 3/13/6 12/14/6 14/15/6 2/16/6
f 1/17/7 13/18/7 12/14/7 3/13/7
f 2/16/3 14/15/3 15/19/3 10/20/3
f 1/8/3 8/9/3 16/21/3 13/22/3
