# Blender v2.91.0 OBJ File: 'map.blend'
# www.blender.org
mtllib river_cliff.mtl
o river_cliff_Cube.003
v -2.000000 0.000000 2.000000
v -2.000000 0.000000 3.700000
v -4.000000 0.000000 2.000000
v -4.000000 0.000000 3.700000
v -2.000000 -0.500000 3.800000
v -4.000000 -0.500000 3.800000
v -2.200000 0.000000 3.600000
v -3.800000 0.000000 3.700000
v -3.400000 0.000000 2.000000
v -2.200000 -0.500000 3.700000
v -3.800000 -0.500000 3.800000
v -4.000000 -0.100000 3.800000
v -2.000000 -0.100000 3.800000
v -2.200000 -0.100000 3.700000
v -3.800000 -0.100000 3.800000
v -2.500000 0.000000 3.600000
v -3.600000 0.000000 3.600000
v -2.600000 0.000000 2.000000
v -3.600000 -0.500000 3.700000
v -3.600000 -0.100000 3.700000
v -2.500000 -0.100000 3.700000
v -2.700000 0.000000 2.900000
v -3.500000 0.000000 2.900000
v -2.500000 -0.100000 3.500000
v -3.600000 -0.100000 3.500000
v -3.400000 -0.100000 2.000000
v -2.600000 -0.100000 2.000000
v -2.500000 -0.500000 3.600000
v -3.600000 -0.500000 3.600000
v -3.600000 -0.200000 3.600000
v -2.500000 -0.200000 3.600000
v -2.700000 -0.100000 2.900000
v -3.500000 -0.100000 2.900000
v -3.600000 0.000000 3.500000
v -3.800000 0.000000 3.600000
v -2.500000 0.000000 3.500000
v -2.000000 -0.500000 4.000000
v -4.000000 -0.500000 4.000000
v -2.000000 -0.500000 4.000000
v -4.000000 -0.500000 4.000000
v -2.000000 -0.500000 4.000000
v -4.000000 -0.500000 4.000000
v -2.500000 -0.500000 3.700000
vt 0.792110 0.625000
vt 0.875000 0.625000
vt 0.875000 0.750000
vt 0.792110 0.737628
vt 0.792110 0.750000
vt 0.875000 0.750000
vt 0.875000 0.750000
vt 0.792110 0.750000
vt 0.625000 0.750000
vt 0.708776 0.750000
vt 0.708776 0.750000
vt 0.625000 0.750000
vt 0.764332 0.750000
vt 0.764332 0.750000
vt 0.625000 0.625000
vt 0.708776 0.625000
vt 0.708776 0.750000
vt 0.625000 0.750000
vt 0.766419 0.740608
vt 0.764332 0.750000
vt 0.792110 0.750000
vt 0.736554 0.750000
vt 0.736554 0.750000
vt 0.764332 0.750000
vt 0.764332 0.750000
vt 0.736554 0.625000
vt 0.736554 0.743877
vt 0.736554 0.750000
vt 0.736554 0.750000
vt 0.736554 0.750000
vt 0.736554 0.750000
vt 0.625000 0.500000
vt 0.708776 0.500000
vt 0.792110 0.500000
vt 0.764332 0.750000
vt 0.736554 0.625000
vt 0.764332 0.625000
vt 0.736554 0.500000
vt 0.764332 0.500000
vt 0.764332 0.500000
vt 0.764332 0.625000
vt 0.736554 0.500000
vt 0.708776 0.625000
vt 0.792110 0.625000
vt 0.875000 0.750000
vt 0.792110 0.750000
vt 0.736554 0.750000
vt 0.708776 0.750000
vt 0.764332 0.750000
vt 0.625000 0.750000
vn 0.0000 1.0000 0.0000
vn -0.0000 0.0000 1.0000
vn -0.4472 0.0000 0.8944
vn 0.4472 0.0000 0.8944
vn 0.3333 0.6667 0.6667
vn -0.3333 0.6667 0.6667
vn 0.0000 0.7071 0.7071
vn 1.0000 0.0000 0.0000
vn -1.0000 0.0000 0.0000
vn 0.9939 0.0000 0.1104
vn -0.9939 0.0000 -0.1104
vn 0.9864 0.0000 0.1644
vn -0.9487 -0.0000 0.3162
usemtl Material
s off
f 23/1/1 3/2/1 4/3/1 35/4/1
f 15/5/2 12/6/2 6/7/2 11/8/2
f 13/9/3 14/10/3 10/11/3 5/12/3
f 20/13/4 15/5/4 11/8/4 19/14/4
f 1/15/1 22/16/1 7/17/1 2/18/1
f 23/1/1 35/4/1 34/19/1
f 17/20/5 8/21/5 15/5/5 20/13/5
f 2/18/6 7/17/6 14/10/6 13/9/6
f 8/21/7 4/3/7 12/6/7 15/5/7
f 7/17/7 16/22/7 21/23/7 14/10/7
f 20/13/8 19/14/8 29/24/8 30/25/8
f 22/26/1 36/27/1 7/17/1
f 14/10/2 21/23/2 43/28/2 10/11/2
f 21/23/9 16/22/9 24/29/9 31/30/9
f 43/28/9 21/23/9 31/30/9 28/31/9
f 1/32/1 18/33/1 22/16/1
f 9/34/1 3/2/1 23/1/1
f 24/29/7 25/35/7 30/25/7 31/30/7
f 32/36/1 33/37/1 25/35/1 24/29/1
f 31/30/2 30/25/2 29/24/2 28/31/2
f 27/38/1 26/39/1 33/37/1 32/36/1
f 17/20/8 20/13/8 30/25/8 25/35/8
f 9/40/10 23/41/10 33/37/10 26/39/10
f 22/16/11 18/42/11 27/38/11 32/43/11
f 23/1/12 34/19/12 25/35/12 33/44/12
f 16/22/9 36/27/9 24/29/9
f 35/4/1 4/3/1 8/21/1
f 25/35/8 34/19/8 17/20/8
f 34/19/1 35/4/1 8/21/1 17/20/1
f 7/17/1 36/27/1 16/22/1
f 24/29/13 36/27/13 22/26/13 32/36/13
f 11/8/1 6/7/1 38/45/1 40/46/1
f 10/11/1 43/28/1 41/47/1 39/48/1
f 19/14/1 11/8/1 40/46/1 42/49/1
f 28/31/1 29/24/1 19/14/1 43/28/1
f 5/12/1 10/11/1 39/48/1 37/50/1
f 41/47/1 43/28/1 19/14/1 42/49/1
