# Blender v2.91.0 OBJ File: 'map.blend'
# www.blender.org
mtllib tree_pine.mtl
o tree_pine_Cube.023
v 23.800001 0.300000 -2.800000
v 23.400002 0.300000 -2.800000
v 23.800001 0.300000 -2.400000
v 23.400002 0.300000 -2.400000
v 23.700001 0.800000 -2.700000
v 23.500000 0.800000 -2.700000
v 23.700001 0.800000 -2.500000
v 23.500000 0.800000 -2.500000
v 23.600000 0.800000 -2.500000
v 23.600000 0.800000 -2.700000
v 23.600000 0.300000 -2.400000
v 23.600000 0.300000 -2.800000
v 23.800001 0.800000 -2.800000
v 23.400002 0.800000 -2.800000
v 23.800001 0.800000 -2.400000
v 23.400002 0.800000 -2.400000
v 23.600000 0.800000 -2.900000
v 23.600000 0.800000 -2.300000
v 23.400002 0.300000 -2.600000
v 23.800001 0.300000 -2.600000
v 23.500000 0.800000 -2.600000
v 23.700001 0.800000 -2.600000
v 23.300001 0.800000 -2.600000
v 23.900002 0.800000 -2.600000
v 23.300001 1.200000 -2.900000
v 23.600000 0.300000 -2.600000
v 23.600000 1.200000 -2.700000
v 23.500000 1.200000 -2.700000
v 23.500000 1.200000 -2.500000
v 23.700001 1.200000 -2.500000
v 23.700001 1.200000 -2.700000
v 23.600000 1.200000 -2.500000
v 23.200001 0.900000 -2.200000
v 24.000000 0.900000 -3.000000
v 24.000000 0.900000 -2.200000
v 23.200001 0.900000 -3.000000
v 23.600000 0.900000 -3.100000
v 23.600000 0.900000 -2.100000
v 23.100000 0.900000 -2.600000
v 24.100000 0.900000 -2.600000
v 23.500000 1.200000 -2.600000
v 23.700001 1.200000 -2.600000
v 23.200001 1.200000 -2.600000
v 24.000000 1.200000 -2.600000
v 23.600000 1.600000 -2.700000
v 23.500000 1.600000 -2.700000
v 23.600000 1.600000 -2.500000
v 23.300001 1.200000 -2.300000
v 23.900002 1.200000 -2.900000
v 23.900002 1.200000 -2.300000
v 23.600000 1.200000 -3.000000
v 23.600000 1.200000 -2.200000
v 23.400002 1.600000 -2.400000
v 23.800001 1.600000 -2.400000
v 23.400002 1.600000 -2.800000
v 23.800001 1.600000 -2.800000
v 23.500000 1.600000 -2.500000
v 23.700001 1.600000 -2.500000
v 23.700001 1.600000 -2.700000
v 23.500000 1.600000 -2.600000
v 23.700001 1.600000 -2.600000
v 23.300001 1.600000 -2.600000
v 23.900002 1.600000 -2.600000
v 23.600000 2.100000 -2.600000
v 23.600000 1.600000 -2.900000
v 23.600000 1.600000 -2.300000
vt 0.750000 0.567209
vt 0.750000 0.625000
vt 0.875000 0.625000
vt 0.875000 0.567209
vt 0.750000 0.500000
vt 0.875000 0.500000
vt 0.875000 0.500000
vt 0.750000 0.500000
vt 0.625000 0.567209
vt 0.625000 0.500000
vt 0.625000 0.500000
vt 0.625000 0.567209
vt 0.875000 0.625000
vt 0.875000 0.567209
vt 0.625000 0.625000
vt 0.625000 0.625000
vt 0.750000 0.625000
vt 0.875000 0.625000
vt 0.875000 0.567209
vt 0.625000 0.500000
vt 0.625000 0.567209
vt 0.875000 0.500000
vt 0.750000 0.500000
vt 0.625000 0.625000
vt 0.750000 0.625000
vt 0.875000 0.500000
vt 0.875000 0.567209
vt 0.875000 0.567209
vt 0.875000 0.500000
vt 0.625000 0.625000
vt 0.625000 0.567209
vt 0.625000 0.567209
vt 0.625000 0.625000
vt 0.625000 0.500000
vt 0.750000 0.500000
vt 0.750000 0.500000
vt 0.625000 0.500000
vt 0.875000 0.625000
vt 0.750000 0.625000
vt 0.750000 0.625000
vt 0.875000 0.625000
vt 0.625000 0.625000
vt 0.625000 0.567209
vt 0.750000 0.625000
vt 0.625000 0.500000
vt 0.875000 0.625000
vt 0.750000 0.500000
vt 0.875000 0.500000
vt 0.875000 0.567209
vt 0.625000 0.567209
vt 0.625000 0.625000
vt 0.750000 0.625000
vt 0.625000 0.500000
vt 0.875000 0.625000
vt 0.750000 0.500000
vt 0.875000 0.500000
vt 0.875000 0.567209
vt 0.875000 0.567209
vt 0.875000 0.500000
vt 0.625000 0.567209
vt 0.625000 0.625000
vt 0.750000 0.500000
vt 0.625000 0.500000
vt 0.750000 0.625000
vt 0.875000 0.625000
vt 0.625000 0.625000
vt 0.750000 0.625000
vt 0.625000 0.567209
vt 0.875000 0.625000
vt 0.625000 0.500000
vt 0.750000 0.500000
vt 0.875000 0.567209
vt 0.875000 0.500000
vn 0.0000 -1.0000 0.0000
vn 0.0000 0.1961 -0.9806
vn 0.9806 0.1961 0.0000
vn -0.9806 0.1961 0.0000
vn 0.0000 0.1961 0.9806
vn 0.6149 0.7789 0.1230
vn 0.1230 0.7789 0.6149
vn 0.6149 0.7789 -0.1230
vn -0.1230 0.7789 0.6149
vn 0.1230 0.7789 -0.6149
vn -0.1230 0.7789 -0.6149
vn -0.6149 0.7789 0.1230
vn -0.6149 0.7789 -0.1230
vn 0.1302 -0.9113 -0.3906
vn 0.1302 -0.9113 0.3906
vn -0.1302 -0.9113 -0.3906
vn 0.3906 -0.9113 -0.1302
vn -0.3906 -0.9113 0.1302
vn -0.1302 -0.9113 0.3906
vn -0.3906 -0.9113 -0.1302
vn 0.3906 -0.9113 0.1302
vn 0.8071 0.5549 0.2018
vn 0.2018 0.5549 0.8071
vn 0.8071 0.5549 -0.2018
vn -0.2018 0.5549 0.8071
vn 0.2018 0.5549 -0.8071
vn -0.2018 0.5549 -0.8071
vn -0.8071 0.5549 0.2018
vn -0.8071 0.5549 -0.2018
vn 0.7881 0.4729 0.3941
vn 0.3941 0.4729 0.7881
vn 0.7881 0.4729 -0.3941
vn -0.3941 0.4729 0.7881
vn 0.3941 0.4729 -0.7881
vn -0.3941 0.4729 -0.7881
vn -0.7881 0.4729 0.3941
vn -0.7881 0.4729 -0.3941
usemtl Material
s off
f 26/1/1 11/2/1 4/3/1 19/4/1
f 12/5/2 2/6/2 6/7/2 10/8/2
f 20/9/3 1/10/3 5/11/3 22/12/3
f 19/4/4 4/3/4 8/13/4 21/14/4
f 11/2/5 3/15/5 7/16/5 9/17/5
f 21/14/1 8/13/1 16/18/1 23/19/1
f 22/12/1 5/11/1 13/20/1 24/21/1
f 10/8/1 6/7/1 14/22/1 17/23/1
f 9/17/1 7/16/1 15/24/1 18/25/1
f 28/26/1 41/27/1 43/28/1 25/29/1
f 30/30/1 42/31/1 44/32/1 50/33/1
f 31/34/1 27/35/1 51/36/1 49/37/1
f 29/38/1 32/39/1 52/40/1 48/41/1
f 8/13/1 9/17/1 18/25/1 16/18/1
f 5/11/1 10/8/1 17/23/1 13/20/1
f 4/3/5 11/2/5 9/17/5 8/13/5
f 1/10/2 12/5/2 10/8/2 5/11/2
f 20/9/1 3/15/1 11/2/1 26/1/1
f 1/10/1 20/9/1 26/1/1 12/5/1
f 32/39/1 30/30/1 50/33/1 52/40/1
f 7/16/1 22/12/1 24/21/1 15/24/1
f 6/7/1 21/14/1 23/19/1 14/22/1
f 2/6/4 19/4/4 21/14/4 6/7/4
f 3/15/3 20/9/3 22/12/3 7/16/3
f 12/5/1 26/1/1 19/4/1 2/6/1
f 35/42/6 40/43/6 42/31/6 30/30/6
f 38/44/7 35/42/7 30/30/7 32/39/7
f 40/43/8 34/45/8 31/34/8 42/31/8
f 33/46/9 38/44/9 32/39/9 29/38/9
f 27/35/1 28/26/1 25/29/1 51/36/1
f 42/31/1 31/34/1 49/37/1 44/32/1
f 41/27/1 29/38/1 48/41/1 43/28/1
f 34/45/10 37/47/10 27/35/10 31/34/10
f 37/47/11 36/48/11 28/26/11 27/35/11
f 39/49/12 33/46/12 29/38/12 41/27/12
f 36/48/13 39/49/13 41/27/13 28/26/13
f 13/20/14 17/23/14 37/47/14 34/45/14
f 18/25/15 15/24/15 35/42/15 38/44/15
f 17/23/16 14/22/16 36/48/16 37/47/16
f 24/21/17 13/20/17 34/45/17 40/43/17
f 23/19/18 16/18/18 33/46/18 39/49/18
f 16/18/19 18/25/19 38/44/19 33/46/19
f 14/22/20 23/19/20 39/49/20 36/48/20
f 15/24/21 24/21/21 40/43/21 35/42/21
f 50/33/22 44/32/22 61/50/22 58/51/22
f 52/40/23 50/33/23 58/51/23 47/52/23
f 44/32/24 49/37/24 59/53/24 61/50/24
f 48/41/25 52/40/25 47/52/25 57/54/25
f 49/37/26 51/36/26 45/55/26 59/53/26
f 51/36/27 25/29/27 46/56/27 45/55/27
f 43/28/28 48/41/28 57/54/28 60/57/28
f 25/29/29 43/28/29 60/57/29 46/56/29
f 46/56/1 60/57/1 62/58/1 55/59/1
f 58/51/1 61/50/1 63/60/1 54/61/1
f 59/53/1 45/55/1 65/62/1 56/63/1
f 57/54/1 47/52/1 66/64/1 53/65/1
f 47/52/1 58/51/1 54/61/1 66/64/1
f 45/55/1 46/56/1 55/59/1 65/62/1
f 61/50/1 59/53/1 56/63/1 63/60/1
f 60/57/1 57/54/1 53/65/1 62/58/1
f 54/61/30 63/60/30 64/66/30
f 66/64/31 54/61/31 64/67/31
f 63/60/32 56/63/32 64/68/32
f 53/65/33 66/64/33 64/69/33
f 56/63/34 65/62/34 64/70/34
f 65/62/35 55/59/35 64/71/35
f 62/58/36 53/65/36 64/72/36
f 55/59/37 62/58/37 64/73/37
