# Blender v2.91.0 OBJ File: 'map.blend'
# www.blender.org
mtllib hill_03_90_convex.mtl
o hill_03_90_convex_Cube.014
v 4.000000 0.600000 -16.000000
v 2.000000 0.900000 -16.000000
v 2.000000 0.600000 -14.000000
v 2.000000 0.900000 -14.300000
v 3.700000 0.900000 -16.000000
v 3.700000 0.900000 -14.300000
v 4.000000 0.600000 -14.000000
vt 0.750000 0.625000
vt 0.875000 0.625000
vt 0.875000 0.750000
vt 0.750000 0.750000
vt 0.750000 0.500000
vt 0.875000 0.500000
vt 0.625000 0.500000
vt 0.625000 0.625000
vn 0.0000 0.7071 0.7071
vn 0.0000 1.0000 0.0000
vn 0.7071 0.7071 0.0000
usemtl Material
s off
f 6/1/1 4/2/1 3/3/1 7/4/1
f 5/5/2 2/6/2 4/2/2 6/1/2
f 1/7/3 5/5/3 6/1/3 7/8/3
