<?xml version="1.0" encoding="UTF-8" standalone="no"?>
<svg
   xmlns:dc="http://purl.org/dc/elements/1.1/"
   xmlns:cc="http://creativecommons.org/ns#"
   xmlns:rdf="http://www.w3.org/1999/02/22-rdf-syntax-ns#"
   xmlns:svg="http://www.w3.org/2000/svg"
   xmlns="http://www.w3.org/2000/svg"
   xmlns:sodipodi="http://sodipodi.sourceforge.net/DTD/sodipodi-0.dtd"
   xmlns:inkscape="http://www.inkscape.org/namespaces/inkscape"
   height="16"
   viewBox="0 0 16 16"
   width="16"
   version="1.1"
   id="svg4"
   sodipodi:docname="Node3D.svg"
   inkscape:version="1.0.2 (e86c870879, 2021-01-15)">
  <metadata
     id="metadata10">
    <rdf:RDF>
      <cc:Work
         rdf:about="">
        <dc:format>image/svg+xml</dc:format>
        <dc:type
           rdf:resource="http://purl.org/dc/dcmitype/StillImage" />
      </cc:Work>
    </rdf:RDF>
  </metadata>
  <defs
     id="defs8" />
  <sodipodi:namedview
     pagecolor="#ffffff"
     bordercolor="#666666"
     borderopacity="1"
     objecttolerance="10"
     gridtolerance="10"
     guidetolerance="10"
     inkscape:pageopacity="0"
     inkscape:pageshadow="2"
     inkscape:window-width="2560"
     inkscape:window-height="1016"
     id="namedview6"
     showgrid="false"
     inkscape:zoom="37.962795"
     inkscape:cx="11.139809"
     inkscape:cy="7.6648742"
     inkscape:window-x="0"
     inkscape:window-y="27"
     inkscape:window-maximized="1"
     inkscape:current-layer="svg4" />
  <path
     d="m8 2a6 6 0 0 0 -6 6 6 6 0 0 0 6 6 6 6 0 0 0 6-6 6 6 0 0 0 -6-6zm0 2a4 4 0 0 1 4 4 4 4 0 0 1 -4 4 4 4 0 0 1 -4-4 4 4 0 0 1 4-4z"
     fill="#fc9c9c"
     fill-opacity=".99608"
     id="path2" />
  <g
     id="g847"
     transform="translate(0.07882124)">
    <g
       aria-label="!"
       id="text837"
       style="font-size:40px;line-height:1.25;font-family:'Mukti Narrow';-inkscape-font-specification:'Mukti Narrow';fill:#fc9c9c;fill-opacity:0.996078"
       transform="matrix(0.21414971,0,0,0.21414971,5.1756269,9.1698132)">
      <path
         d="M 14.03165,-0.9893136 H 11.668369 L 10.672275,-21.458064 h 4.355469 z m -3.691406,5.9179687 q 0,-0.7421875 0.195312,-1.25 0.195313,-0.5273437 0.527344,-0.8398437 0.332031,-0.3320313 0.78125,-0.46875 0.449219,-0.15625 0.976563,-0.15625 0.507812,0 0.957031,0.15625 0.46875,0.1367187 0.800781,0.46875 0.332031,0.3125 0.527344,0.8398437 0.195312,0.5078125 0.195312,1.25 0,0.7226563 -0.195312,1.25 -0.195313,0.5078125 -0.527344,0.8398438 -0.332031,0.3320312 -0.800781,0.4882812 -0.449219,0.15625 -0.957031,0.15625 -0.527344,0 -0.976563,-0.15625 -0.449219,-0.15625 -0.78125,-0.4882812 -0.332031,-0.3320313 -0.527344,-0.8398438 -0.195312,-0.5273437 -0.195312,-1.25 z"
         style="font-style:normal;font-variant:normal;font-weight:normal;font-stretch:normal;font-family:'Droid Sans';-inkscape-font-specification:'Droid Sans';fill:#fc9c9c;fill-opacity:0.996078"
         id="path839" />
    </g>
    <path
       style="fill:#fc9c9c;fill-opacity:0.996078;stroke:none;stroke-width:0.0198616;stroke-linecap:round;paint-order:fill markers stroke"
       d="M 7.5780797,6.8171164 C 7.5219041,5.64541 7.4727739,4.661552 7.4689014,4.6307653 l -0.00704,-0.055976 H 7.923645 c 0.4100278,0 0.4617847,0.00231 0.4617847,0.020592 0,0.011326 -0.047415,0.9929526 -0.1053663,2.1813929 -0.057951,1.1884404 -0.1053663,2.1630318 -0.1053663,2.1657588 0,0.00273 -0.1112581,0.00496 -0.2472401,0.00496 h -0.24724 z"
       id="path842" />
  </g>
</svg>
