<?xml version="1.0" encoding="UTF-8" standalone="no"?>
<svg
   height="16"
   viewBox="0 0 16 16"
   width="16"
   version="1.1"
   id="svg4"
   sodipodi:docname="WorldModule.svg"
   inkscape:version="1.1.1 (3bf5ae0d25, 2021-09-20, custom)"
   xmlns:inkscape="http://www.inkscape.org/namespaces/inkscape"
   xmlns:sodipodi="http://sodipodi.sourceforge.net/DTD/sodipodi-0.dtd"
   xmlns="http://www.w3.org/2000/svg"
   xmlns:svg="http://www.w3.org/2000/svg"
   xmlns:rdf="http://www.w3.org/1999/02/22-rdf-syntax-ns#"
   xmlns:cc="http://creativecommons.org/ns#"
   xmlns:dc="http://purl.org/dc/elements/1.1/">
  <metadata
     id="metadata10">
    <rdf:RDF>
      <cc:Work
         rdf:about="">
        <dc:format>image/svg+xml</dc:format>
        <dc:type
           rdf:resource="http://purl.org/dc/dcmitype/StillImage" />
      </cc:Work>
    </rdf:RDF>
  </metadata>
  <defs
     id="defs8">
    <marker
       style="overflow:visible"
       id="TriangleOutM"
       refX="0.0"
       refY="0.0"
       orient="auto"
       inkscape:stockid="TriangleOutM"
       inkscape:isstock="true">
      <path
         transform="scale(0.4)"
         style="fill-rule:evenodd;stroke:#000000;stroke-width:1pt;stroke-opacity:1;fill:#000000;fill-opacity:1"
         d="M 5.77,0.0 L -2.88,5.0 L -2.88,-5.0 L 5.77,0.0 z "
         id="path1003" />
    </marker>
    <marker
       style="overflow:visible"
       id="TriangleOutS"
       refX="0.0"
       refY="0.0"
       orient="auto"
       inkscape:stockid="TriangleOutS"
       inkscape:isstock="true">
      <path
         transform="scale(0.2)"
         style="fill-rule:evenodd;stroke:#000000;stroke-width:1pt;stroke-opacity:1;fill:#000000;fill-opacity:1"
         d="M 5.77,0.0 L -2.88,5.0 L -2.88,-5.0 L 5.77,0.0 z "
         id="path1006" />
    </marker>
    <marker
       style="overflow:visible"
       id="TriangleInS"
       refX="0.0"
       refY="0.0"
       orient="auto"
       inkscape:stockid="TriangleInS"
       inkscape:isstock="true">
      <path
         transform="scale(-0.2)"
         style="fill-rule:evenodd;stroke:#000000;stroke-width:1pt;stroke-opacity:1;fill:#000000;fill-opacity:1"
         d="M 5.77,0.0 L -2.88,5.0 L -2.88,-5.0 L 5.77,0.0 z "
         id="path997" />
    </marker>
    <marker
       style="overflow:visible"
       id="TriangleInL"
       refX="0.0"
       refY="0.0"
       orient="auto"
       inkscape:stockid="TriangleInL"
       inkscape:isstock="true">
      <path
         transform="scale(-0.8)"
         style="fill-rule:evenodd;stroke:#000000;stroke-width:1pt;stroke-opacity:1;fill:#000000;fill-opacity:1"
         d="M 5.77,0.0 L -2.88,5.0 L -2.88,-5.0 L 5.77,0.0 z "
         id="path991" />
    </marker>
    <marker
       style="overflow:visible"
       id="Arrow1Sstart"
       refX="0.0"
       refY="0.0"
       orient="auto"
       inkscape:stockid="Arrow1Sstart"
       inkscape:isstock="true">
      <path
         transform="scale(0.2) translate(6,0)"
         style="fill-rule:evenodd;stroke:#000000;stroke-width:1pt;stroke-opacity:1;fill:#000000;fill-opacity:1"
         d="M 0.0,0.0 L 5.0,-5.0 L -12.5,0.0 L 5.0,5.0 L 0.0,0.0 z "
         id="path870" />
    </marker>
    <marker
       style="overflow:visible"
       id="Arrow1Lstart"
       refX="0.0"
       refY="0.0"
       orient="auto"
       inkscape:stockid="Arrow1Lstart"
       inkscape:isstock="true">
      <path
         transform="scale(0.8) translate(12.5,0)"
         style="fill-rule:evenodd;stroke:#000000;stroke-width:1pt;stroke-opacity:1;fill:#000000;fill-opacity:1"
         d="M 0.0,0.0 L 5.0,-5.0 L -12.5,0.0 L 5.0,5.0 L 0.0,0.0 z "
         id="path858" />
    </marker>
    <marker
       style="overflow:visible"
       id="TriangleInS-6"
       refX="0"
       refY="0"
       orient="auto"
       inkscape:stockid="TriangleInS"
       inkscape:isstock="true">
      <path
         transform="scale(-0.2)"
         style="fill:#000000;fill-opacity:1;fill-rule:evenodd;stroke:#000000;stroke-width:1pt;stroke-opacity:1"
         d="M 5.77,0 -2.88,5 V -5 Z"
         id="path997-7" />
    </marker>
    <marker
       style="overflow:visible"
       id="TriangleOutS-5"
       refX="0"
       refY="0"
       orient="auto"
       inkscape:stockid="TriangleOutS"
       inkscape:isstock="true">
      <path
         transform="scale(0.2)"
         style="fill:#000000;fill-opacity:1;fill-rule:evenodd;stroke:#000000;stroke-width:1pt;stroke-opacity:1"
         d="M 5.77,0 -2.88,5 V -5 Z"
         id="path1006-3" />
    </marker>
    <marker
       style="overflow:visible"
       id="TriangleInS-62"
       refX="0"
       refY="0"
       orient="auto"
       inkscape:stockid="TriangleInS"
       inkscape:isstock="true">
      <path
         transform="scale(-0.2)"
         style="fill:#000000;fill-opacity:1;fill-rule:evenodd;stroke:#000000;stroke-width:1pt;stroke-opacity:1"
         d="M 5.77,0 -2.88,5 V -5 Z"
         id="path997-9" />
    </marker>
    <marker
       style="overflow:visible"
       id="TriangleOutS-1"
       refX="0"
       refY="0"
       orient="auto"
       inkscape:stockid="TriangleOutS"
       inkscape:isstock="true">
      <path
         transform="scale(0.2)"
         style="fill:#000000;fill-opacity:1;fill-rule:evenodd;stroke:#000000;stroke-width:1pt;stroke-opacity:1"
         d="M 5.77,0 -2.88,5 V -5 Z"
         id="path1006-2" />
    </marker>
    <marker
       style="overflow:visible"
       id="TriangleInS-6-7"
       refX="0"
       refY="0"
       orient="auto"
       inkscape:stockid="TriangleInS"
       inkscape:isstock="true">
      <path
         transform="scale(-0.2)"
         style="fill:#000000;fill-opacity:1;fill-rule:evenodd;stroke:#000000;stroke-width:1pt;stroke-opacity:1"
         d="M 5.77,0 -2.88,5 V -5 Z"
         id="path997-7-0" />
    </marker>
    <marker
       style="overflow:visible"
       id="TriangleOutS-5-9"
       refX="0"
       refY="0"
       orient="auto"
       inkscape:stockid="TriangleOutS"
       inkscape:isstock="true">
      <path
         transform="scale(0.2)"
         style="fill:#000000;fill-opacity:1;fill-rule:evenodd;stroke:#000000;stroke-width:1pt;stroke-opacity:1"
         d="M 5.77,0 -2.88,5 V -5 Z"
         id="path1006-3-3" />
    </marker>
  </defs>
  <sodipodi:namedview
     pagecolor="#ffffff"
     bordercolor="#666666"
     borderopacity="1"
     objecttolerance="10"
     gridtolerance="10"
     guidetolerance="10"
     inkscape:pageopacity="0"
     inkscape:pageshadow="2"
     inkscape:window-width="2560"
     inkscape:window-height="1003"
     id="namedview6"
     showgrid="false"
     inkscape:zoom="22.627417"
     inkscape:cx="5.7673397"
     inkscape:cy="8.1759221"
     inkscape:window-x="0"
     inkscape:window-y="0"
     inkscape:window-maximized="1"
     inkscape:current-layer="svg4"
     inkscape:pagecheckerboard="1"
     showguides="true"
     inkscape:guide-bbox="true" />
  <path
     id="path12042"
     style="color:#000000;fill:#e0e0e0;stroke-width:1.002;stroke-linecap:round;stroke-linejoin:round;-inkscape-stroke:none"
     d="m 8.4344747,3.0787432 c -0.411285,0 -0.8130639,0.055937 -1.2011719,0.1679687 C 6.8490168,3.3587951 6.4715532,3.528334 6.0985372,3.7545244 l -0.072266,0.042969 V 3.9908525 C 5.9234416,3.8936013 5.7828504,3.8401016 5.6356466,3.8541338 5.4186378,3.8740718 5.2394006,4.0319898 5.1922872,4.2447588 L 3.4754903,12.109993 c -0.00155,0.0091 -0.00377,0.0184 -0.027344,0.09375 0.00485,7.93e-4 0.080078,0.261719 0.080078,0.261719 l 0.037109,0.05469 c 2.66e-5,2.8e-5 0.183478,0.150335 0.1835937,0.150391 1.158e-4,5.5e-5 0.071998,0.02726 0.072266,0.02734 2.672e-4,7.9e-5 0.028906,0.0075 0.039062,0.0098 0.040627,0.0089 0.05456,0.01 0.072266,0.01172 0.035411,0.0035 0.070336,0.0052 0.1386719,0.0078 0.1366706,0.0052 0.3938686,0.011 0.90625,0.01563 1.0247628,0.0092 3.0677794,0.01273 7.1582035,-0.0098 0.38847,-0.0026 0.626379,-0.427086 0.425781,-0.759766 L 11.131741,9.6119463 C 11.042001,9.4632039 10.88162,9.3715577 10.707912,9.3697588 L 9.2684591,9.3599932 8.9735372,8.1881182 c 0.025027,-0.053582 0.059028,-0.10957 0.1015625,-0.1679688 v -0.00195 c 0.0688,-0.092722 0.1945769,-0.2316855 0.3730469,-0.4101562 L 9.9559591,7.1119463 C 10.310565,6.7731005 10.564856,6.4652799 10.715725,6.1803057 10.865107,5.893989 10.940334,5.5890767 10.940334,5.2721025 10.940334,4.623129 10.704039,4.0773242 10.241116,3.6763994 9.7817959,3.2750095 9.1712497,3.0787432 8.4344747,3.0787432 Z m 0,0.296875 c 0.2567312,0 0.4908825,0.024675 0.7050781,0.074219 0.071399,0.016515 0.1421122,0.036629 0.2089844,0.058594 0.066872,0.021965 0.1309136,0.046832 0.1933594,0.074219 0.062446,0.027387 0.1215681,0.057062 0.1796875,0.089844 0.058119,0.032782 0.1140759,0.067319 0.1679687,0.1054687 0.053893,0.038149 0.1064838,0.079557 0.1562502,0.1230469 0.05028,0.043548 0.09679,0.088168 0.140625,0.1347656 0.04384,0.046598 0.0856,0.094724 0.123047,0.1445313 0.03744,0.049807 0.07047,0.101121 0.101563,0.1542968 0.03109,0.053176 0.0592,0.1093117 0.08398,0.1660157 0.02478,0.056704 0.04593,0.1153898 0.06445,0.1757812 0.01852,0.060391 0.03457,0.1213086 0.04687,0.1855469 0.0123,0.064238 0.02121,0.1309743 0.02734,0.1992188 0.0061,0.068244 0.0098,0.1385275 0.0098,0.2109374 0,0.067527 -0.0038,0.1335038 -0.01172,0.1992188 -0.0079,0.065715 -0.01928,0.131177 -0.03516,0.1953125 -0.01588,0.064136 -0.03657,0.1266649 -0.06055,0.1894531 -0.02398,0.062788 -0.05181,0.1258268 -0.08399,0.1875 -0.0318,0.060077 -0.07015,0.1236019 -0.115234,0.1894532 -0.04509,0.065851 -0.09785,0.133752 -0.15625,0.2050781 -0.05865,0.071621 -0.123198,0.1458181 -0.1953131,0.2226562 -0.071522,0.076206 -0.1495654,0.1552877 -0.234375,0.2363281 v 0.00195 L 9.2391622,7.3971025 v 0.00195 c -0.091334,0.091334 -0.169831,0.1727257 -0.2363281,0.2460937 -0.03607,0.039797 -0.068603,0.078247 -0.097656,0.1132813 -0.025376,0.030599 -0.04819,0.058708 -0.068359,0.085937 h -0.00195 C 8.7539573,7.955085 8.6938777,8.0674252 8.6571309,8.1822588 v 0.00195 l -0.00195,0.00195 c -0.026511,0.092788 -0.044419,0.2000493 -0.056641,0.3222656 -0.012433,0.12433 -0.017578,0.2865253 -0.017578,0.4902344 V 9.5631182 H 7.7704122 V 8.8189775 c 0,-0.3763959 0.053295,-0.678897 0.1503906,-0.9042968 C 8.0154978,7.6948537 8.2315122,7.413093 8.5711935,7.0885088 L 8.6356466,7.0240557 9.0907247,6.5748369 C 9.3182087,6.3633171 9.486909,6.1593826 9.5946309,5.9576494 c 0.027749,-0.050161 0.053086,-0.1008144 0.074219,-0.1523437 0.021133,-0.051529 0.038431,-0.1036458 0.052734,-0.15625 0.014135,-0.051986 0.023994,-0.1054516 0.03125,-0.1582032 8.72e-5,-6.393e-4 -8.62e-5,-0.00131 0,-0.00195 0.00717,-0.052739 0.011631,-0.1049858 0.011719,-0.1582031 0,-0.048153 -0.00299,-0.096118 -0.00781,-0.1425781 -0.0046,-0.045223 -0.01045,-0.089374 -0.019531,-0.1328125 -1.314e-4,-6.209e-4 1.322e-4,-0.00133 0,-0.00195 -0.00915,-0.043416 -0.02159,-0.085475 -0.035156,-0.1269531 -0.014046,-0.042609 -0.030186,-0.084589 -0.048828,-0.125 -0.018067,-0.03936 -0.038171,-0.076169 -0.060547,-0.1132812 -2.735e-4,-4.522e-4 2.742e-4,-0.0015 0,-0.00195 -0.022462,-0.037128 -0.04945,-0.072702 -0.076172,-0.1074219 -2.977e-4,-3.864e-4 2.983e-4,-0.00157 0,-0.00195 -0.026802,-0.034726 -0.05688,-0.067451 -0.087891,-0.099609 -0.031341,-0.032498 -0.064078,-0.064054 -0.099609,-0.09375 C 9.046979,4.1447931 8.6737147,4.029915 8.2313497,4.0299151 c -0.027898,0 -0.055829,9.025e-4 -0.083984,0.00195 -0.026663,9.948e-4 -0.053185,0.00393 -0.080078,0.00586 -0.057363,0.00412 -0.1154306,0.00922 -0.1738281,0.017578 -0.025297,0.00362 -0.050683,0.00926 -0.076172,0.013672 -0.054342,0.0094 -0.1088534,0.020246 -0.1640625,0.033203 -0.036824,0.00863 -0.074123,0.017146 -0.1113281,0.027344 -0.05811,0.015951 -0.1167485,0.034937 -0.1757813,0.054687 -0.021968,0.00735 -0.044311,0.013612 -0.066406,0.021484 -0.033776,0.012034 -0.067493,0.02386 -0.1015625,0.037109 -0.031448,0.012367 -0.061978,0.027024 -0.09375,0.041016 -0.00644,0.00284 -0.01308,0.00491 -0.019531,0.00781 -0.096553,0.043375 -0.1960422,0.093507 -0.2949218,0.1484375 -0.069031,0.03877 -0.1372224,0.078682 -0.2070313,0.1210938 -0.070212,0.042307 -0.140265,0.086388 -0.2109375,0.1308593 -0.016135,0.010153 -0.032679,0.019082 -0.048828,0.029297 V 4.5767901 3.9752275 c 0.247159,-0.1444762 0.4948212,-0.2659889 0.7441406,-0.359375 0.082342,-0.030842 0.165514,-0.059874 0.2480469,-0.083984 6.007e-4,-1.734e-4 0.00135,1.731e-4 0.00195,0 0.089713,-0.02585 0.1802743,-0.048953 0.2714844,-0.068359 6.224e-4,-1.324e-4 0.00133,1.321e-4 0.00195,0 0.091209,-0.01936 0.1827304,-0.035902 0.2753906,-0.048828 6.379e-4,-8.9e-5 0.00132,8.87e-5 0.00195,0 0.092665,-0.012881 0.1852266,-0.022839 0.2792968,-0.029297 6.468e-4,-4.44e-5 0.00131,4.41e-5 0.00195,0 0.094081,-0.00641 0.1897156,-0.00977 0.2851562,-0.00977 z m -0.203125,0.9492187 c 0.391978,0 0.686106,0.096928 0.90625,0.2832032 l 0.00195,0.00195 c 0.224702,0.1872518 0.328125,0.4116463 0.328125,0.71875 0,0.1630314 -0.04295,0.3219391 -0.1328125,0.484375 v 0.00195 0.00195 c -0.08547,0.160695 -0.2332395,0.3418715 -0.4453125,0.5390625 l -0.00195,0.00195 -0.5019531,0.4960937 C 8.340705,6.8405844 8.2937966,6.8310385 8.2450216,6.8306963 L 7.2782247,6.8248369 6.4793966,4.9478838 C 6.7660114,4.7661749 7.0419662,4.6218601 7.3055685,4.5181963 7.6395364,4.3883201 7.9481117,4.3248369 8.2313497,4.3248369 Z M 7.7372091,10.711555 h 0.8789062 v 1.173829 H 7.7372091 Z" />
  <rect
     style="fill:none;stroke:#e0e0e0;stroke-width:1.49225;stroke-linecap:round;stroke-linejoin:round"
     id="rect940"
     width="12.035051"
     height="12.035051"
     x="1.9113517"
     y="2.0104442" />
  <g
     aria-label="?"
     id="text10378-6"
     style="font-size:11.8658px;stroke:#e0e0e0;stroke-width:0.297"
     transform="translate(-1.1483994,1.2962236)" />
</svg>
