<?xml version="1.0" encoding="UTF-8" standalone="no"?>
<svg
   xmlns:dc="http://purl.org/dc/elements/1.1/"
   xmlns:cc="http://creativecommons.org/ns#"
   xmlns:rdf="http://www.w3.org/1999/02/22-rdf-syntax-ns#"
   xmlns:svg="http://www.w3.org/2000/svg"
   xmlns="http://www.w3.org/2000/svg"
   xmlns:sodipodi="http://sodipodi.sourceforge.net/DTD/sodipodi-0.dtd"
   xmlns:inkscape="http://www.inkscape.org/namespaces/inkscape"
   height="16"
   viewBox="0 0 16 16"
   width="16"
   version="1.1"
   id="svg58"
   sodipodi:docname="Actor3D.svg"
   inkscape:version="1.0.1 (3bc2e813f5, 2020-09-07)">
  <metadata
     id="metadata64">
    <rdf:RDF>
      <cc:Work
         rdf:about="">
        <dc:format>image/svg+xml</dc:format>
        <dc:type
           rdf:resource="http://purl.org/dc/dcmitype/StillImage" />
        <dc:title />
      </cc:Work>
    </rdf:RDF>
  </metadata>
  <defs
     id="defs62" />
  <sodipodi:namedview
     pagecolor="#ffffff"
     bordercolor="#666666"
     borderopacity="1"
     objecttolerance="10"
     gridtolerance="10"
     guidetolerance="10"
     inkscape:pageopacity="0"
     inkscape:pageshadow="2"
     inkscape:window-width="1549"
     inkscape:window-height="995"
     id="namedview60"
     showgrid="false"
     inkscape:zoom="50.5625"
     inkscape:cx="7.3021146"
     inkscape:cy="8.2001791"
     inkscape:window-x="26"
     inkscape:window-y="23"
     inkscape:window-maximized="0"
     inkscape:current-layer="g844"
     inkscape:document-rotation="0" />
  <g
     id="g844"
     transform="matrix(1.2281477,0,0,1.2281477,-3.460358,-1.1352776)">
    <path
       id="rect846"
       style="fill:#e0e0e0;stroke-width:2.02971"
       d="M 5.9667969 5.9199219 L 3.0429688 14.691406 L 12.957031 14.691406 L 10.033203 5.9199219 C 9.5372451 6.4904977 8.8152856 6.8590031 8 6.859375 C 7.1847149 6.8590028 6.4627547 6.4904977 5.9667969 5.9199219 z "
       transform="matrix(0.81423431,0,0,0.81423431,2.8175422,0.92438198)" />
    <path
       id="path832-3"
       style="fill:#e0e0e0;stroke-width:1.65005"
       d="m 9.2817311,1.6042682 a 2.2037206,2.2037206 0 0 0 -2.153029,2.2027141 2.2037206,2.2037206 0 0 0 2.202714,2.2027142 2.2037206,2.2037206 0 0 0 2.2027149,-2.2027142 2.2037206,2.2037206 0 0 0 -2.2027149,-2.2027141 2.2037206,2.2037206 0 0 0 -0.04969,0 z m 0.04969,0.632107 A 1.5712627,1.5712627 0 0 1 10.902023,3.8069823 1.5712627,1.5712627 0 0 1 9.3314161,5.3775891 1.5712627,1.5712627 0 0 1 7.7608091,3.8069823 1.5712627,1.5712627 0 0 1 9.3314161,2.2363752 Z" />
  </g>
</svg>
