<?xml version="1.0" encoding="UTF-8" standalone="no"?>
<svg
   xmlns:dc="http://purl.org/dc/elements/1.1/"
   xmlns:cc="http://creativecommons.org/ns#"
   xmlns:rdf="http://www.w3.org/1999/02/22-rdf-syntax-ns#"
   xmlns:svg="http://www.w3.org/2000/svg"
   xmlns="http://www.w3.org/2000/svg"
   xmlns:sodipodi="http://sodipodi.sourceforge.net/DTD/sodipodi-0.dtd"
   xmlns:inkscape="http://www.inkscape.org/namespaces/inkscape"
   height="16"
   viewBox="0 0 16 16"
   width="16"
   version="1.1"
   id="svg58"
   sodipodi:docname="TileCollection.svg"
   inkscape:version="1.0.1 (3bc2e813f5, 2020-09-07)">
  <g
     id="g2122"
     transform="matrix(0.97361855,0,0,0.95944633,0.15861781,0.18703481)">
    <g
       aria-label="{ }"
       id="text865"
       style="font-style:normal;font-weight:normal;font-size:6.26302px;line-height:1.25;font-family:sans-serif;fill:#e0e0e0;fill-opacity:1;stroke:none;stroke-width:0.156575"
       transform="matrix(1.6283683,0,0,1.6283683,-5.0627173,-4.8240127)">
      <g
         id="g842"
         transform="matrix(1.4452036,0,0,1.4452036,-2.2250855,-2.420385)">
        <path
           d="M 6.2232128,9.6452118 V 10.08558 H 6.0336096 q -0.7614707,0 -1.0214105,-0.2263002 Q 4.7553175,9.6329793 4.7553175,8.9571358 V 8.2262463 q 0,-0.4617754 -0.1651383,-0.6391461 Q 4.425041,7.4097295 3.9907887,7.4097295 H 3.8042436 V 6.9724191 h 0.1865451 q 0.4373104,0 0.5993905,-0.1743126 Q 4.7553175,6.6207358 4.7553175,6.1650766 V 5.431129 q 0,-0.6758435 0.2568816,-0.8990859 Q 5.2721389,4.3057425 6.0336096,4.3057425 H 6.2232128 V 4.743053 H 6.015261 q -0.4311943,0 -0.5626933,0.1345571 Q 5.3210688,5.0121672 5.3210688,5.4433614 V 6.201774 q 0,0.4801241 -0.1406733,0.6972503 -0.1376152,0.2171262 -0.4740079,0.293579 0.3394508,0.082569 0.477066,0.2996953 0.1376152,0.2171262 0.1376152,0.6941922 v 0.7584126 q 0,0.4311942 0.1314989,0.5657513 0.131499,0.1345571 0.5626933,0.1345571 z"
           style="fill:#e0e0e0;stroke-width:0.156575"
           id="path835" />
        <path
           d="m 7.9991681,9.6452118 h 0.214068 c 0.285424,0 0.4709497,-0.043833 0.556577,-0.131499 0.087666,-0.087666 0.131499,-0.2772691 0.131499,-0.5688094 V 8.1864908 c 0,-0.318044 0.045872,-0.5494414 0.137615,-0.6941922 C 9.1306705,7.3475479 9.2896925,7.2476494 9.5159931,7.1926033 9.2896925,7.1416348 9.1306705,7.0437751 9.0389271,6.8990243 8.9471838,6.7542735 8.9013121,6.5218567 8.9013121,6.201774 V 5.4433614 c 0,-0.2895015 -0.043833,-0.4780853 -0.131499,-0.5657513 C 8.6841858,4.7879054 8.4986601,4.743053 8.2132361,4.743053 H 7.9991681 V 4.3057425 h 0.1926612 c 0.5076472,0 0.8460785,0.075433 1.0152938,0.2263006 0.1712547,0.1488283 0.256882,0.4485236 0.256882,0.8990859 v 0.7339476 c 0,0.3037728 0.055046,0.5147828 0.1651381,0.6330299 0.110093,0.1162084 0.30989,0.1743126 0.5993908,0.1743126 h 0.189603 v 0.4373104 h -0.189603 c -0.2895008,0 -0.4892978,0.059124 -0.5993908,0.1773707 C 9.5190511,7.7053473 9.4640051,7.918396 9.4640051,8.2262463 v 0.7308895 c 0,0.4505623 -0.085627,0.751277 -0.256882,0.902144 C 9.0379078,10.010147 8.6994765,10.08558 8.1918293,10.08558 H 7.9991681 Z"
           style="fill:#e0e0e0;stroke-width:0.156575"
           id="path837"
           sodipodi:nodetypes="cscssscssscsccscsscsccsssscscc" />
      </g>
    </g>
    <g
       id="g847"
       transform="matrix(1.6283683,0,0,1.6283683,-5.0627173,-4.8240127)">
      <rect
         style="fill:#e0e0e0;stroke-width:0.71835"
         id="rect846"
         width="1.8753455"
         height="1.8753455"
         x="7.0875874"
         y="3.4248309" />
      <rect
         style="fill:#e0e0e0;stroke-width:0.71835"
         id="rect846-3"
         width="1.8753455"
         height="1.8753455"
         x="7.0875874"
         y="5.8118234" />
      <rect
         style="fill:#e0e0e0;stroke-width:0.71835"
         id="rect846-3-6"
         width="1.8753455"
         height="1.8753455"
         x="7.0875874"
         y="8.1988153" />
      <rect
         style="fill:#e0e0e0;stroke-width:0.71835"
         id="rect846-3-6-3"
         width="1.8753455"
         height="1.8753455"
         x="7.0875874"
         y="10.585808" />
    </g>
  </g>
  <metadata
     id="metadata64">
    <rdf:RDF>
      <cc:Work
         rdf:about="">
        <dc:format>image/svg+xml</dc:format>
        <dc:type
           rdf:resource="http://purl.org/dc/dcmitype/StillImage" />
        <dc:title />
      </cc:Work>
    </rdf:RDF>
  </metadata>
  <defs
     id="defs62" />
  <sodipodi:namedview
     pagecolor="#ffffff"
     bordercolor="#666666"
     borderopacity="1"
     objecttolerance="10"
     gridtolerance="10"
     guidetolerance="10"
     inkscape:pageopacity="0"
     inkscape:pageshadow="2"
     inkscape:window-width="2560"
     inkscape:window-height="1019"
     id="namedview60"
     showgrid="false"
     inkscape:zoom="50.562501"
     inkscape:cx="7.0092436"
     inkscape:cy="10.144088"
     inkscape:window-x="0"
     inkscape:window-y="0"
     inkscape:window-maximized="1"
     inkscape:current-layer="svg58"
     inkscape:document-rotation="0" />
</svg>
