<?xml version="1.0" encoding="UTF-8" standalone="no"?>
<svg
   xmlns:dc="http://purl.org/dc/elements/1.1/"
   xmlns:cc="http://creativecommons.org/ns#"
   xmlns:rdf="http://www.w3.org/1999/02/22-rdf-syntax-ns#"
   xmlns:svg="http://www.w3.org/2000/svg"
   xmlns="http://www.w3.org/2000/svg"
   xmlns:sodipodi="http://sodipodi.sourceforge.net/DTD/sodipodi-0.dtd"
   xmlns:inkscape="http://www.inkscape.org/namespaces/inkscape"
   height="16"
   viewBox="0 0 16 16"
   width="16"
   version="1.1"
   id="svg58"
   sodipodi:docname="TileManager.svg"
   inkscape:version="1.0.1 (3bc2e813f5, 2020-09-07)">
  <metadata
     id="metadata64">
    <rdf:RDF>
      <cc:Work
         rdf:about="">
        <dc:format>image/svg+xml</dc:format>
        <dc:type
           rdf:resource="http://purl.org/dc/dcmitype/StillImage" />
        <dc:title />
      </cc:Work>
    </rdf:RDF>
  </metadata>
  <defs
     id="defs62" />
  <sodipodi:namedview
     pagecolor="#ffffff"
     bordercolor="#666666"
     borderopacity="1"
     objecttolerance="10"
     gridtolerance="10"
     guidetolerance="10"
     inkscape:pageopacity="0"
     inkscape:pageshadow="2"
     inkscape:window-width="1549"
     inkscape:window-height="995"
     id="namedview60"
     showgrid="false"
     inkscape:zoom="50.5625"
     inkscape:cx="6.9582067"
     inkscape:cy="7.7704458"
     inkscape:window-x="26"
     inkscape:window-y="23"
     inkscape:window-maximized="0"
     inkscape:current-layer="svg58"
     inkscape:document-rotation="0" />
  <g
     id="g844"
     transform="matrix(2.0737166,0,0,2.0737166,-11.230969,-7.2245659)">
    <path
       style="fill:#e0e0e0;stroke-width:0.0342171"
       d="m 7.6584886,11.044793 -0.086072,-0.08607 0.011167,-1.393819 C 7.5944226,8.211997 7.5970116,8.165456 7.6718176,7.979289 7.8659858,7.4960696 8.1615775,7.2295988 8.6918557,7.0597348 9.083919,6.9341468 9.1996558,6.9288413 9.2671439,7.033375 c 0.027345,0.042347 0.1814956,0.4373752 0.3425673,0.877845 0.1610716,0.440474 0.2982735,0.806276 0.3048929,0.812894 0.00665,0.0066 0.042782,-0.206266 0.080362,-0.473081 L 10.06329,7.765915 9.915141,7.506573 C 9.7539961,7.2244827 9.7386523,7.1482167 9.8197495,7.0324348 c 0.050168,-0.071624 0.077911,-0.076047 0.4770985,-0.076047 0.399189,0 0.426932,0.00443 0.477101,0.076047 0.0811,0.1157819 0.06575,0.1920479 -0.09539,0.4741382 l -0.14815,0.259342 0.06832,0.485118 c 0.03758,0.266815 0.07374,0.479701 0.08036,0.473081 0.0067,-0.0066 0.14382,-0.37242 0.304892,-0.812894 0.161072,-0.4404698 0.315227,-0.8355021 0.342568,-0.877845 0.06738,-0.1043512 0.183221,-0.099219 0.572069,0.025329 0.40205,0.1287861 0.653569,0.3038556 0.842048,0.586107 C 12.995688,8.026702 13,8.059544 13,9.619758 V 11 l -0.08078,0.06543 c -0.07793,0.06312 -0.170719,0.06543 -2.627721,0.06543 H 7.7445591 Z M 10.09269,10.591945 C 10.079881,10.559024 9.8224672,9.854564 9.5206564,9.026509 9.2188455,8.198457 8.9606157,7.5087255 8.9468117,7.4937812 c -0.013802,-0.014956 -0.1160324,0.00626 -0.2271756,0.047128 -0.143169,0.05264 -0.2528884,0.126076 -0.3763743,0.251898 -0.2826601,0.288009 -0.287635,0.317147 -0.287635,1.684623 v 1.1743948 h 1.030175 c 0.9671782,0 1.0287502,-0.0037 1.0068882,-0.05988 z m 2.445382,-1.097293 c 0,-1.370169 -0.0078,-1.416584 -0.284515,-1.698624 C 12.126969,7.667018 12.018246,7.593927 11.874062,7.540909 11.762919,7.500044 11.66069,7.478832 11.646886,7.49378 c -0.0138,0.014956 -0.272034,0.7046766 -0.573845,1.5327276 -0.30181,0.828055 -0.559225,1.5325004 -0.572033,1.5654364 -0.02186,0.05622 0.03971,0.05988 1.006888,0.05988 h 1.030176 z"
       id="path21"
       sodipodi:nodetypes="ccssscscccssscccccssccscssccssccsscssscccssscs" />
    <rect
       style="fill:#e0e0e0"
       id="rect846"
       width="2.6106305"
       height="2.6106305"
       x="5.651762"
       y="3.7541227" />
    <path
       id="path832"
       style="fill:#e0e0e0;stroke-width:1.16754"
       d="m 10.306641,3.5527344 a 1.5593059,1.5593059 0 0 0 -1.5234379,1.5585937 1.5593059,1.5593059 0 0 0 1.5585939,1.5585938 1.5593059,1.5593059 0 0 0 1.558594,-1.5585938 1.5593059,1.5593059 0 0 0 -1.558594,-1.5585937 1.5593059,1.5593059 0 0 0 -0.03516,0 z M 10.341797,4 A 1.1117921,1.1117921 0 0 1 11.453125,5.1113281 1.1117921,1.1117921 0 0 1 10.341797,6.2226562 1.1117921,1.1117921 0 0 1 9.2304688,5.1113281 1.1117921,1.1117921 0 0 1 10.341797,4 Z" />
  </g>
</svg>
