<?xml version="1.0" encoding="UTF-8" standalone="no"?>
<svg
   xmlns:dc="http://purl.org/dc/elements/1.1/"
   xmlns:cc="http://creativecommons.org/ns#"
   xmlns:rdf="http://www.w3.org/1999/02/22-rdf-syntax-ns#"
   xmlns:svg="http://www.w3.org/2000/svg"
   xmlns="http://www.w3.org/2000/svg"
   xmlns:sodipodi="http://sodipodi.sourceforge.net/DTD/sodipodi-0.dtd"
   xmlns:inkscape="http://www.inkscape.org/namespaces/inkscape"
   height="16"
   viewBox="0 0 16 16"
   width="16"
   version="1.1"
   id="svg58"
   sodipodi:docname="TileMesh.svg"
   inkscape:version="1.0.1 (3bc2e813f5, 2020-09-07, custom)">
  <metadata
     id="metadata64">
    <rdf:RDF>
      <cc:Work
         rdf:about="">
        <dc:format>image/svg+xml</dc:format>
        <dc:type
           rdf:resource="http://purl.org/dc/dcmitype/StillImage" />
        <dc:title />
      </cc:Work>
    </rdf:RDF>
  </metadata>
  <defs
     id="defs62" />
  <sodipodi:namedview
     pagecolor="#ffffff"
     bordercolor="#666666"
     borderopacity="1"
     objecttolerance="10"
     gridtolerance="10"
     guidetolerance="10"
     inkscape:pageopacity="0"
     inkscape:pageshadow="2"
     inkscape:window-width="2560"
     inkscape:window-height="1019"
     id="namedview60"
     showgrid="false"
     inkscape:zoom="32"
     inkscape:cx="2.8635362"
     inkscape:cy="6.5629232"
     inkscape:window-x="0"
     inkscape:window-y="0"
     inkscape:window-maximized="1"
     inkscape:current-layer="g844"
     inkscape:document-rotation="0" />
  <g
     id="g844"
     transform="matrix(2.0737166,0,0,2.0737166,-11.230969,-7.2245659)">
    <path
       d="m 7.5618597,4.8883986 a 0.69750638,0.69750638 0 0 0 -0.697506,0.6975063 0.69750638,0.69750638 0 0 0 0.348753,0.6035175 v 2.2811948 a 0.69750638,0.69750638 0 0 0 -0.348753,0.602819 0.69750638,0.69750638 0 0 0 0.697506,0.697507 0.69750638,0.69750638 0 0 0 0.603518,-0.348753 h 2.2811953 a 0.69750638,0.69750638 0 0 0 0.602819,0.348753 0.69750638,0.69750638 0 0 0 0.697506,-0.697507 0.69750638,0.69750638 0 0 0 -0.359634,-0.610317 h 0.0109 V 6.1887249 A 0.69750638,0.69750638 0 0 0 11.746916,5.5859049 0.69750638,0.69750638 0 0 0 11.04941,4.8883986 0.69750638,0.69750638 0 0 0 10.445893,5.2371517 H 8.1646977 A 0.69750638,0.69750638 0 0 0 7.5618767,4.8883986 Z m 0.841925,1.0462596 h 2.0427883 a 0.69750638,0.69750638 0 0 0 0.254073,0.2547537 V 8.2315362 L 8.4037927,5.9346825 Z M 7.9106127,6.42783 10.207468,8.7246832 H 8.1646797 A 0.69750638,0.69750638 0 0 0 7.9106067,8.4699302 V 6.4278057 Z"
       fill="#ffd684"
       id="path929"
       style="fill:#e0e0e0;fill-opacity:1;stroke-width:0.348753" />
    <rect
       style="fill:none;stroke:#e0e0e0;stroke-width:0.482226;stroke-opacity:1"
       id="rect832"
       width="6.6607461"
       height="6.6607461"
       x="5.9752617"
       y="3.9992979"
       ry="0.53534311" />
  </g>
</svg>
