# Blender v2.91.0 OBJ File: 'map.blend'
# www.blender.org
mtllib cliff_90_convex.mtl
o cliff_90_convex_Cube.030
v 2.000000 0.000000 2.000000
v 2.000000 0.000000 3.700000
v 2.000000 -0.500000 3.800000
v 3.600000 0.000000 3.600000
v 2.600000 0.000000 3.700000
v 3.700000 -0.500000 3.700000
v 2.600000 -0.500000 3.800000
v 2.000000 -0.100000 3.800000
v 3.700000 -0.100000 3.700000
v 2.600000 -0.100000 3.800000
v 2.000000 -0.500000 4.000000
v 3.000000 0.000000 3.600000
v 3.000000 -0.500000 3.700000
v 3.000000 -0.100000 3.700000
v 4.000000 -0.500000 4.000000
v 3.800000 -0.500000 2.000000
v 3.800000 -0.100000 2.000000
v 3.600000 0.000000 2.300000
v 3.700000 0.000000 3.100000
v 3.700000 -0.500000 2.300000
v 3.800000 -0.500000 3.100000
v 3.700000 0.000000 2.000000
v 3.700000 -0.100000 2.300000
v 3.800000 -0.100000 3.100000
v 3.600000 0.000000 2.700000
v 3.700000 -0.500000 2.700000
v 3.700000 -0.100000 2.700000
v 4.000000 -0.500000 2.000000
vt 0.875000 0.500000
vt 0.875000 0.750000
vt 0.792110 0.750000
vt 0.792110 0.750000
vt 0.875000 0.750000
vt 0.875000 0.750000
vt 0.792110 0.750000
vt 0.792110 0.750000
vt 0.750443 0.750000
vt 0.708776 0.750000
vt 0.750443 0.500000
vt 0.875000 0.750000
vt 0.750443 0.750000
vt 0.750443 0.750000
vt 0.792110 0.500000
vt 0.750443 0.750000
vt 0.792110 0.750000
vt 0.750443 0.750000
vt 0.708776 0.750000
vt 0.708776 0.750000
vt 0.708776 0.750000
vt 0.708776 0.750000
vt 0.708776 0.750000
vt 0.708776 0.750000
vt 0.708776 0.750000
vt 0.792110 0.750000
vt 0.875000 0.750000
vt 0.875000 0.750000
vt 0.792110 0.750000
vt 0.625000 0.750000
vt 0.708776 0.750000
vt 0.625000 0.750000
vt 0.750443 0.750000
vt 0.750443 0.750000
vt 0.792110 0.750000
vt 0.750443 0.750000
vt 0.625000 0.750000
vt 0.708776 0.750000
vn 0.0000 1.0000 0.0000
vn 0.0000 0.0000 1.0000
vn 0.2425 0.0000 0.9701
vn 0.1741 0.6963 0.6963
vn 0.0000 0.7071 0.7071
vn 0.6882 0.6882 0.2294
vn 0.9864 0.0000 0.1644
vn 0.9487 0.0000 0.3162
vn 0.9701 0.0000 -0.2425
vn 0.6963 0.6963 -0.1741
vn 0.6707 0.7317 0.1219
vn 0.7071 0.7071 0.0000
vn 1.0000 0.0000 0.0000
usemtl Material
s off
f 1/1/1 2/2/1 5/3/1
f 10/4/2 8/5/2 3/6/2 7/7/2
f 19/8/1 25/9/1 18/10/1 1/11/1 4/12/1
f 14/13/3 10/4/3 7/7/3 13/14/3
f 1/15/1 5/3/1 12/16/1
f 12/16/4 5/3/4 10/4/4 14/13/4
f 5/3/5 2/2/5 8/5/5 10/4/5
f 13/14/1 7/7/1 11/17/1 15/18/1
f 18/10/6 23/19/6 17/20/6 22/21/6
f 7/7/1 3/6/1 11/17/1
f 6/22/1 13/14/1 15/23/1
f 4/24/5 12/16/5 14/13/5 9/25/5
f 1/11/1 12/16/1 4/24/1
f 9/25/2 14/13/2 13/14/2 6/22/2
f 24/26/7 9/27/7 6/28/7 21/29/7
f 17/30/8 23/19/8 20/31/8 16/32/8
f 27/33/9 24/26/9 21/29/9 26/34/9
f 18/10/1 22/21/1 1/11/1
f 25/9/10 19/8/10 24/26/10 27/33/10
f 19/8/11 4/12/11 9/27/11 24/26/11
f 26/34/1 21/29/1 15/35/1 28/36/1
f 16/32/1 20/31/1 28/37/1
f 21/29/1 6/28/1 15/35/1
f 20/31/1 26/34/1 28/38/1
f 18/10/12 25/9/12 27/33/12 23/19/12
f 23/19/13 27/33/13 26/34/13 20/31/13
