# Blender v2.91.0 OBJ File: 'map.blend'
# www.blender.org
mtllib hill_03_straight.mtl
o hill_03_straight_Cube.010
v 1.000000 0.900000 -16.000000
v 1.000000 0.600000 -14.000000
v -1.000000 0.900000 -16.000000
v -1.000000 0.600000 -14.000000
v 1.000000 0.900000 -14.300000
v -1.000000 0.900000 -14.300000
vt 0.625000 0.625000
vt 0.875000 0.625000
vt 0.875000 0.750000
vt 0.625000 0.750000
vt 0.625000 0.500000
vt 0.875000 0.500000
vn 0.0000 0.7071 0.7071
vn 0.0000 1.0000 0.0000
usemtl Material
s off
f 5/1/1 6/2/1 4/3/1 2/4/1
f 1/5/2 3/6/2 6/2/2 5/1/2
