# Blender v2.91.0 OBJ File: 'map.blend'
# www.blender.org
mtllib mountain360.mtl
o mountain360_Cube.015
v 0.800000 1.000000 -21.600000
v -0.500000 1.000000 -21.600000
v 0.500000 1.000000 -21.600000
v -0.600000 1.000000 -20.400002
v 0.500000 1.000000 -20.400002
v -0.500000 2.400000 -21.400000
v 0.400000 2.400000 -21.500000
v -0.400000 2.400000 -20.500000
v 0.400000 2.400000 -20.500000
v 0.600000 1.000000 -21.400002
v -0.700000 1.000000 -21.500000
v 0.500000 2.400000 -21.400000
v 1.000000 0.900000 -22.000000
v 0.000000 1.000000 -21.600000
v 0.000000 1.000000 -20.300001
v 0.000000 2.400000 -21.400000
v 0.000000 2.400000 -20.500000
v -0.800000 1.000000 -21.799999
v 0.650000 1.000000 -20.550001
v -0.700000 1.000000 -20.650002
v 0.500000 2.400000 -20.600000
v -0.500000 2.400000 -20.700001
v 0.800000 1.000000 -20.200001
v -0.800000 1.000000 -20.200001
v 0.250000 1.000000 -21.650002
v 0.250000 1.000000 -20.350000
v 0.300000 2.400000 -21.500000
v 0.200000 2.400000 -20.500000
v 0.250000 2.300000 -21.650002
v 0.500000 2.300000 -21.600000
v 0.250000 2.300000 -20.350000
v 0.500000 2.300000 -20.400002
v 0.650000 2.300000 -20.550001
v -0.700000 2.300000 -20.650002
v -0.600000 2.300000 -20.400002
v 0.600000 2.300000 -21.400002
v -0.500000 2.300000 -21.600000
v -0.700000 2.300000 -21.500000
v 0.000000 2.300000 -21.600000
v 0.000000 2.300000 -20.300001
v -1.000000 0.900000 -22.000000
v 1.000000 0.900000 -20.000000
v -1.000000 0.900000 -20.000000
v 0.200000 1.000000 -20.100000
v -0.900000 1.000000 -21.000000
v 0.600000 1.000000 -21.800001
vt 0.794664 0.572917
vt 0.875000 0.583333
vt 0.794664 0.583333
vt 0.625000 0.572917
vt 0.711331 0.572917
vt 0.711331 0.583333
vt 0.711331 0.562500
vt 0.711331 0.541667
vt 0.711331 0.541667
vt 0.711331 0.562500
vt 0.794664 0.500000
vt 0.794664 0.541667
vt 0.752998 0.541667
vt 0.752998 0.583333
vt 0.752998 0.625000
vt 0.794664 0.583333
vt 0.794664 0.572917
vt 0.732164 0.583333
vt 0.711331 0.583333
vt 0.732164 0.583333
vt 0.794664 0.541667
vt 0.752998 0.541667
vt 0.794664 0.562500
vt 0.794664 0.562500
vt 0.711331 0.572917
vt 0.625000 0.541667
vt 0.875000 0.562500
vt 0.732164 0.541667
vt 0.732164 0.541667
vt 0.752998 0.583333
vt 0.739231 0.625000
vt 0.752998 0.500000
vt 0.625000 0.562500
vt 0.875000 0.566707
vt 0.711331 0.500000
vt 0.713689 0.500000
vt 0.711331 0.625000
vt 0.721726 0.550286
vt 0.732653 0.547730
vt 0.751162 0.548640
vt 0.788755 0.557500
vt 0.786956 0.573783
vt 0.785335 0.578392
vt 0.752192 0.579720
vt 0.735199 0.578892
vt 0.720889 0.577441
vt 0.718296 0.574374
vt 0.719812 0.557181
vt 0.785947 0.552158
vt 0.625000 0.572917
vt 0.625000 0.562500
vt 0.732164 0.500000
vt 0.711331 0.500000
vt 0.732164 0.500000
vt 0.732164 0.625000
vt 0.732164 0.625000
vt 0.875000 0.572917
vt 0.875000 0.572917
vt 0.752998 0.625000
vt 0.875000 0.562500
vn 0.0000 1.0000 0.0000
vn 0.8944 0.0000 -0.4472
vn -0.9285 0.0000 0.3714
vn 0.1961 0.0000 0.9806
vn 0.0000 0.0000 -1.0000
vn -0.4472 0.0000 -0.8944
vn 0.9983 0.0000 -0.0587
vn -0.1961 0.0000 -0.9806
vn -0.1644 0.0000 0.9864
vn 0.7071 0.0000 0.7071
vn -1.0000 0.0000 -0.0000
vn 0.1961 0.0000 -0.9806
vn 0.0874 0.7863 -0.6116
vn 0.0665 0.7982 0.5987
vn 0.4083 0.8165 0.4082
vn -0.3880 0.9054 0.1725
vn 0.5571 0.7428 -0.3714
vn -0.2182 0.8729 -0.4364
vn 0.0000 0.8944 -0.4472
vn -0.0529 0.8468 0.5293
vn 0.6269 0.7789 -0.0190
vn -0.4472 0.8944 0.0000
vn -0.1303 0.8687 -0.4778
vn 0.0544 0.8703 0.4895
vn 0.4472 0.8944 0.0000
vn 0.0655 0.9172 0.3931
vn -0.4056 0.9126 0.0507
vn -0.0194 0.8136 0.5811
vn -0.5931 0.8049 -0.0212
vn 0.1622 0.9733 -0.1622
usemtl Material
s off
f 20/1/1 24/2/1 4/3/1
f 23/4/1 19/5/1 5/6/1
f 10/7/2 3/8/2 30/9/2 36/10/2
f 18/11/1 2/12/1 14/13/1
f 15/14/1 4/3/1 24/15/1
f 20/1/3 4/3/3 35/16/3 34/17/3
f 26/18/4 5/6/4 32/19/4 31/20/4
f 14/13/5 2/12/5 37/21/5 39/22/5
f 2/12/6 11/23/6 38/24/6 37/21/6
f 19/5/7 10/7/7 36/10/7 33/25/7
f 1/26/1 3/8/1 10/7/1
f 2/12/1 18/27/1 11/23/1
f 25/28/8 14/13/8 39/22/8 29/29/8
f 4/3/9 15/14/9 40/30/9 35/16/9
f 26/18/1 15/14/1 24/15/1 44/31/1
f 18/32/1 14/13/1 25/28/1
f 5/6/10 19/5/10 33/25/10 32/19/10
f 11/23/11 20/1/11 34/17/11 38/24/11
f 1/33/1 10/7/1 19/5/1 23/4/1
f 11/23/1 18/27/1 45/34/1
f 1/35/1 46/36/1 25/28/1
f 5/6/1 26/18/1 23/37/1
f 7/38/1 27/39/1 16/40/1 6/41/1 22/42/1 8/43/1 17/44/1 28/45/1 9/46/1 21/47/1 12/48/1
f 3/8/12 25/28/12 29/29/12 30/9/12
f 15/14/4 26/18/4 31/20/4 40/30/4
f 27/39/13 7/38/13 30/9/13 29/29/13
f 9/46/14 28/45/14 31/20/14 32/19/14
f 21/47/15 9/46/15 32/19/15 33/25/15
f 8/43/16 22/42/16 34/17/16 35/16/16
f 7/38/17 12/48/17 36/10/17 30/9/17
f 6/49/18 37/21/18 38/24/18
f 6/49/19 16/40/19 39/22/19 37/21/19
f 17/44/20 8/43/20 35/16/20 40/30/20
f 12/48/21 21/47/21 33/25/21 36/10/21
f 22/42/22 6/41/22 38/24/22 34/17/22
f 16/40/23 27/39/23 29/29/23 39/22/23
f 28/45/24 17/44/24 40/30/24 31/20/24
f 1/33/25 23/4/25 42/50/25 13/51/25
f 25/28/1 3/8/1 1/35/1
f 18/52/19 46/36/19 13/53/19 41/54/19
f 23/55/26 44/31/26 42/56/26
f 24/57/27 45/34/27 43/58/27
f 44/31/1 23/55/1 26/18/1
f 42/56/28 44/31/28 24/15/28 43/59/28
f 45/34/1 24/57/1 20/1/1 11/23/1
f 43/58/29 45/34/29 18/27/29 41/60/29
f 25/28/1 46/36/1 18/52/1
f 13/53/30 46/36/30 1/35/30
