# Blender v2.91.0 OBJ File: 'map.blend'
# www.blender.org
mtllib river.start.mtl
o river.start_Cube.005
v -4.000000 0.000000 -5.000000
v -2.600000 0.000000 -5.000000
v -3.400000 0.000000 -5.000000
v -3.000000 0.000000 -6.600000
v -4.000000 0.000000 -7.000000
v -2.600000 -0.100000 -5.000000
v -3.400000 -0.100000 -5.000000
v -2.400000 0.000000 -6.000000
v -3.600000 0.000000 -6.000000
v -2.400000 -0.100000 -6.000000
v -3.600000 -0.100000 -6.000000
v -3.400000 0.000000 -6.500000
v -2.600000 -0.100000 -6.500000
v -3.400000 -0.100000 -6.500000
v -2.000000 0.000000 -5.000000
v -2.600000 0.000000 -5.500000
v -3.400000 0.000000 -5.500000
v -2.600000 -0.100000 -5.500000
v -3.400000 -0.100000 -5.500000
v -2.000000 0.000000 -7.000000
v -2.600000 0.000000 -6.500000
v -3.000000 -0.100000 -6.600000
vt 0.792166 0.686644
vt 0.875000 0.750000
vt 0.792166 0.750000
vt 0.625000 0.686644
vt 0.708832 0.686644
vt 0.708832 0.750000
vt 0.708832 0.686644
vt 0.750499 0.686644
vt 0.750499 0.750000
vt 0.708832 0.750000
vt 0.792166 0.750000
vt 0.792166 0.686644
vt 0.792166 0.562500
vt 0.792166 0.625000
vt 0.792166 0.625000
vt 0.792166 0.562500
vt 0.750499 0.562500
vt 0.750499 0.625000
vt 0.708832 0.625000
vt 0.708832 0.625000
vt 0.625000 0.562500
vt 0.708832 0.562500
vt 0.875000 0.562500
vt 0.875000 0.625000
vt 0.708832 0.562500
vt 0.750499 0.562500
vt 0.625000 0.625000
vt 0.875000 0.686644
vt 0.792166 0.500000
vt 0.708832 0.500000
vt 0.750499 0.500000
vn 0.0000 1.0000 0.0000
vn 1.0000 0.0000 0.0000
vn 0.9285 0.0000 0.3714
vn -0.9285 0.0000 -0.3714
vn -0.2425 0.0000 0.9701
vn -0.9285 0.0000 0.3714
vn -1.0000 0.0000 0.0000
vn 0.9285 0.0000 -0.3714
vn 0.2425 0.0000 0.9701
usemtl Material
s off
f 17/1/1 1/2/1 3/3/1
f 15/4/1 16/5/1 2/6/1
f 18/7/1 19/8/1 7/9/1 6/10/1
f 17/1/2 3/3/2 7/11/2 19/12/2
f 12/13/3 9/14/3 11/15/3 14/16/3
f 22/17/1 14/16/1 11/18/1
f 16/5/4 8/19/4 10/20/4 18/7/4
f 20/21/1 21/22/1 8/19/1
f 12/13/1 5/23/1 1/24/1 9/14/1
f 22/17/5 13/25/5 21/22/5 4/26/5
f 10/20/1 11/18/1 19/8/1 18/7/1
f 8/19/6 21/22/6 13/25/6 10/20/6
f 2/6/7 16/5/7 18/7/7 6/10/7
f 9/14/8 17/1/8 19/12/8 11/15/8
f 20/27/1 8/19/1 16/5/1 15/4/1
f 9/14/1 1/28/1 17/1/1
f 5/29/1 12/13/1 4/26/1
f 14/16/9 22/17/9 4/26/9 12/13/9
f 20/30/1 5/31/1 4/26/1 21/22/1
f 13/25/1 22/17/1 11/18/1 10/20/1
