# Blender v2.91.0 OBJ File: 'map.blend'
# www.blender.org
mtllib beach_left.mtl
o beach_left_Cube.029
v -7.044447 0.000000 2.000000
v -7.044447 -0.300000 3.800000
v -5.344447 0.000000 3.300000
v -7.044447 -0.500000 3.900000
v -6.444447 -0.300000 3.700000
v -5.644447 -0.300000 3.800000
v -5.044447 0.000000 2.000000
v -6.444447 -0.500000 3.800000
v -5.644447 -0.500000 3.900000
v -5.644447 -0.300000 3.600000
v -7.044447 -0.400000 3.900000
v -6.444447 -0.400000 3.800000
v -7.044447 0.000000 2.900000
v -6.444447 0.000000 2.900000
v -7.044447 -0.300000 3.400000
v -6.444447 -0.300000 3.400000
v -5.044447 -0.500000 4.000000
v -7.044447 -0.500000 4.000000
v -5.044447 0.000000 3.800000
v -5.344447 0.000000 3.800000
v -5.044447 -0.100000 3.900000
v -5.344447 -0.100000 3.900000
v -5.544447 0.000000 3.100000
v -5.844447 -0.300000 3.400000
v -5.844447 0.000000 2.900000
v -5.644447 -0.400000 3.900000
v -5.044447 -0.500000 3.900000
vt 0.792110 0.718366
vt 0.792110 0.718366
vt 0.792110 0.687716
vt 0.792110 0.687716
vt 0.792110 0.750000
vt 0.792110 0.750000
vt 0.875000 0.750000
vt 0.625000 0.750000
vt 0.625000 0.750000
vt 0.708776 0.750000
vt 0.708776 0.750000
vt 0.708776 0.718366
vt 0.792110 0.750000
vt 0.708776 0.750000
vt 0.625000 0.750000
vt 0.792110 0.500000
vt 0.708776 0.625433
vt 0.792110 0.625433
vt 0.625000 0.500000
vt 0.625000 0.625433
vt 0.708776 0.500000
vt 0.708776 0.687716
vt 0.625000 0.687716
vt 0.708776 0.750000
vt 0.792110 0.750000
vt 0.625000 0.750000
vt 0.792110 0.750000
vt 0.875000 0.750000
vt 0.875000 0.718366
vt 0.792110 0.750000
vt 0.875000 0.750000
vt 0.875000 0.687716
vt 0.625000 0.718367
vn -0.4082 0.8165 0.4082
vn 0.0000 0.0000 1.0000
vn 0.1644 0.0000 0.9864
vn -0.1240 0.0000 0.9923
vn 0.0000 1.0000 0.0000
vn -0.0880 0.7044 0.7044
vn 0.1170 0.7022 0.7022
vn 0.0000 0.8575 0.5145
vn 0.0000 0.7071 0.7071
vn -0.3244 0.8111 0.4867
vn -0.5774 0.5774 0.5773
vn -0.7071 0.7071 0.0000
usemtl Material
s off
f 10/1/1 3/2/1 23/3/1 24/4/1
f 26/5/2 9/6/2 27/7/2
f 11/8/3 4/9/3 8/10/3 12/11/3
f 12/11/4 8/10/4 9/6/4 26/5/4
f 5/12/5 6/13/5 10/1/5
f 5/14/6 12/11/6 26/5/6 6/13/6
f 2/15/7 11/8/7 12/11/7 5/14/7
f 7/16/5 14/17/5 25/18/5
f 1/19/5 13/20/5 14/17/5 7/21/5
f 14/17/8 16/22/8 24/4/8 25/18/8
f 13/20/8 15/23/8 16/22/8 14/17/8
f 8/10/5 18/24/5 17/25/5 9/6/5
f 4/9/5 18/26/5 8/10/5
f 9/6/5 17/25/5 27/7/5
f 3/2/5 20/27/5 19/28/5 7/29/5
f 20/27/9 22/30/9 21/31/9 19/28/9
f 16/22/5 5/12/5 10/1/5 24/4/5
f 25/18/5 23/3/5 7/32/5
f 24/4/10 23/3/10 25/18/10
f 27/7/2 21/31/2 22/30/2 26/5/2
f 26/5/11 22/30/11 20/27/11 6/13/11
f 23/3/5 3/2/5 7/29/5
f 6/13/12 20/27/12 3/2/12 10/1/12
f 15/23/5 2/33/5 5/12/5 16/22/5
