# Blender v2.91.0 OBJ File: 'map.blend'
# www.blender.org
mtllib cliff_Y.mtl
o cliff_Y_Cube.058
v 17.100000 -0.500000 3.700000
v 17.299999 -0.500000 3.800000
v 17.299999 -0.100000 4.000000
v 17.299999 -0.500000 4.000000
v 17.000000 0.000000 3.600000
v 17.000000 -0.500000 3.700000
v 17.200001 0.000000 3.600000
v 17.100000 -0.100000 3.700000
v 17.400000 0.000000 3.800000
v 17.299999 -0.100000 3.800000
v 17.400000 0.000000 4.000000
v 17.000000 -0.100000 3.700000
v 17.000000 -0.500000 4.000000
v 18.900000 -0.500000 3.700000
v 18.900000 -0.100000 3.700000
v 18.700001 -0.500000 3.800000
v 18.700001 -0.100000 3.800000
v 18.700001 -0.100000 4.000000
v 18.700001 -0.500000 4.000000
v 18.600000 0.000000 4.000000
v 19.000000 -0.100000 3.700000
v 19.000000 -0.500000 3.700000
v 18.600000 0.000000 3.600000
v 18.600000 0.000000 3.800000
v 19.000000 -0.500000 4.000000
v 18.700001 -0.500000 2.100000
v 18.700001 -0.100000 2.100000
v 18.799999 -0.500000 2.300000
v 18.799999 -0.100000 2.300000
v 19.000000 -0.100000 2.300000
v 19.000000 -0.500000 2.300000
v 19.000000 0.000000 2.400000
v 18.700001 -0.100000 2.000000
v 18.700001 -0.500000 2.000000
v 18.799999 0.000000 2.400000
v 18.600000 0.000000 2.000000
v 19.000000 -0.500000 2.000000
v 18.600000 0.000000 2.200000
v 19.000000 0.000000 3.600000
v 17.000000 0.000000 2.000000
v 18.800001 0.000000 3.600000
vt 0.792110 0.750000
vt 0.875000 0.750000
vt 0.875000 0.750000
vt 0.792110 0.750000
vt 0.792110 0.750000
vt 0.792110 0.750000
vt 0.792110 0.750000
vt 0.792110 0.750000
vt 0.708776 0.750000
vt 0.729610 0.750000
vt 0.729610 0.750000
vt 0.708776 0.750000
vt 0.708776 0.750000
vt 0.729610 0.750000
vt 0.729610 0.750000
vt 0.708776 0.750000
vt 0.875000 0.750000
vt 0.875000 0.750000
vt 0.875000 0.750000
vt 0.792110 0.750000
vt 0.792110 0.750000
vt 0.875000 0.750000
vt 0.875000 0.750000
vt 0.792110 0.750000
vt 0.792110 0.750000
vt 0.792110 0.750000
vt 0.875000 0.750000
vt 0.792110 0.750000
vt 0.792110 0.750000
vt 0.792110 0.750000
vt 0.708776 0.750000
vt 0.708776 0.750000
vt 0.729610 0.750000
vt 0.729610 0.750000
vt 0.708776 0.750000
vt 0.729610 0.750000
vt 0.708776 0.750000
vt 0.729610 0.750000
vt 0.792110 0.750000
vt 0.792110 0.750000
vt 0.875000 0.750000
vt 0.875000 0.750000
vt 0.792110 0.750000
vt 0.792110 0.750000
vt 0.792110 0.750000
vt 0.875000 0.750000
vt 0.792110 0.750000
vt 0.708776 0.750000
vt 0.708776 0.750000
vt 0.729610 0.750000
vt 0.729610 0.750000
vt 0.708776 0.750000
vt 0.729610 0.750000
vt 0.708776 0.750000
vt 0.729610 0.750000
vt 0.792110 0.750000
vt 0.792110 0.750000
vt 0.808688 0.750000
vt 0.708776 0.750000
vt 0.800399 0.750000
vt 0.792110 0.750000
vn -0.4472 0.0000 0.8944
vn -0.7071 0.7071 0.0000
vn -1.0000 0.0000 0.0000
vn 0.0000 1.0000 0.0000
vn 0.0000 0.0000 1.0000
vn 0.0000 0.7071 0.7071
vn -0.4243 0.7071 0.5657
vn 0.4472 0.0000 0.8944
vn 0.7071 0.7071 0.0000
vn 0.4243 0.7071 0.5657
vn 1.0000 0.0000 0.0000
vn 0.8944 0.0000 -0.4472
vn 0.0000 0.7071 -0.7071
vn 0.5657 0.7071 -0.4243
vn 0.0000 0.0000 -1.0000
usemtl Material
s off
f 10/1/1 8/2/1 1/3/1 2/4/1
f 9/5/2 10/1/2 3/6/2 11/7/2
f 10/1/3 2/4/3 4/8/3 3/6/3
f 2/4/4 1/3/4 4/8/4
f 8/9/5 12/10/5 6/11/5 1/12/5
f 7/13/6 5/14/6 12/10/6 8/9/6
f 1/12/4 6/11/4 13/15/4 4/16/4
f 7/17/4 40/18/4 5/19/4
f 9/5/7 7/17/7 8/2/7 10/1/7
f 17/20/8 16/21/8 14/22/8 15/23/8
f 24/24/9 20/25/9 18/26/9 17/20/9
f 24/24/10 17/20/10 15/23/10 41/27/10
f 17/20/11 18/26/11 19/28/11 16/21/11
f 16/21/4 19/28/4 14/22/4
f 24/24/4 41/29/4 23/30/4
f 15/31/5 14/32/5 22/33/5 21/34/5
f 41/35/6 15/31/6 21/34/6 39/36/6
f 14/32/4 19/37/4 25/38/4 22/33/4
f 9/5/4 11/7/4 20/25/4 24/24/4
f 29/39/12 28/40/12 26/41/12 27/42/12
f 35/43/13 32/44/13 30/45/13 29/39/13
f 35/43/14 29/39/14 27/42/14 38/46/14
f 29/39/15 30/45/15 31/47/15 28/40/15
f 28/40/4 31/47/4 26/41/4
f 27/48/11 26/49/11 34/50/11 33/51/11
f 38/52/9 27/48/9 33/51/9 36/53/9
f 26/49/4 31/54/4 37/55/4 34/50/4
f 40/56/4 7/57/4 23/58/4 38/46/4
f 38/52/4 36/53/4 40/59/4
f 41/60/4 35/43/4 38/46/4 23/58/4
f 35/43/4 41/60/4 39/61/4 32/44/4
f 23/30/4 7/57/4 9/5/4 24/24/4
