# Blender v2.91.0 OBJ File: 'map.blend'
# www.blender.org
mtllib cliff_T.mtl
o cliff_T_Cube.032
v 14.100000 -0.500000 3.700000
v 14.300000 -0.500000 3.800000
v 14.300000 -0.100000 4.000000
v 14.300000 -0.500000 4.000000
v 14.000000 0.000000 3.600000
v 14.000000 -0.500000 3.700000
v 14.200000 0.000000 3.600000
v 14.100000 -0.100000 3.700000
v 14.400000 0.000000 3.800000
v 14.300000 -0.100000 3.800000
v 14.400000 0.000000 4.000000
v 14.000000 -0.100000 3.700000
v 14.000000 -0.500000 4.000000
v 14.000000 0.000000 2.000000
v 15.900000 -0.500000 3.700000
v 15.900000 -0.100000 3.700000
v 15.700000 -0.500000 3.800000
v 15.700000 -0.100000 3.800000
v 15.700000 -0.100000 4.000000
v 15.700000 -0.500000 4.000000
v 15.600000 0.000000 4.000000
v 16.000000 -0.100000 3.700000
v 16.000000 -0.500000 3.700000
v 16.000000 0.000000 2.000000
v 15.600000 0.000000 3.800000
v 16.000000 0.000000 3.600000
v 16.000000 -0.500000 4.000000
v 15.800000 0.000000 3.600000
vt 0.792110 0.750000
vt 0.875000 0.750000
vt 0.875000 0.750000
vt 0.792110 0.750000
vt 0.792110 0.750000
vt 0.792110 0.750000
vt 0.792110 0.750000
vt 0.792110 0.750000
vt 0.708776 0.750000
vt 0.729610 0.750000
vt 0.729610 0.750000
vt 0.708776 0.750000
vt 0.708776 0.750000
vt 0.729610 0.750000
vt 0.729610 0.750000
vt 0.708776 0.750000
vt 0.875000 0.750000
vt 0.875000 0.750000
vt 0.875000 0.750000
vt 0.875000 0.750000
vt 0.792110 0.750000
vt 0.792110 0.750000
vt 0.875000 0.750000
vt 0.875000 0.750000
vt 0.792110 0.750000
vt 0.792110 0.750000
vt 0.792110 0.750000
vt 0.875000 0.750000
vt 0.792110 0.750000
vt 0.792110 0.750000
vt 0.792110 0.750000
vt 0.708776 0.750000
vt 0.708776 0.750000
vt 0.729610 0.750000
vt 0.729610 0.750000
vt 0.708776 0.750000
vt 0.729610 0.750000
vt 0.708776 0.750000
vt 0.729610 0.750000
vt 0.875000 0.750000
vt 0.792110 0.750000
vn -0.4472 0.0000 0.8944
vn -0.7071 0.7071 0.0000
vn -1.0000 0.0000 0.0000
vn 0.0000 1.0000 0.0000
vn 0.0000 0.0000 1.0000
vn 0.0000 0.7071 0.7071
vn -0.4243 0.7071 0.5657
vn 0.4472 0.0000 0.8944
vn 0.7071 0.7071 0.0000
vn 0.4243 0.7071 0.5657
vn 1.0000 0.0000 0.0000
usemtl Material
s off
f 10/1/1 8/2/1 1/3/1 2/4/1
f 9/5/2 10/1/2 3/6/2 11/7/2
f 10/1/3 2/4/3 4/8/3 3/6/3
f 2/4/4 1/3/4 4/8/4
f 8/9/5 12/10/5 6/11/5 1/12/5
f 7/13/6 5/14/6 12/10/6 8/9/6
f 1/12/4 6/11/4 13/15/4 4/16/4
f 7/17/4 24/18/4 14/19/4 5/20/4
f 9/5/7 7/17/7 8/2/7 10/1/7
f 18/21/8 17/22/8 15/23/8 16/24/8
f 25/25/9 21/26/9 19/27/9 18/21/9
f 25/25/10 18/21/10 16/24/10 28/28/10
f 18/21/11 19/27/11 20/29/11 17/22/11
f 17/22/4 20/29/4 15/23/4
f 25/25/4 28/30/4 7/31/4 9/5/4
f 16/32/5 15/33/5 23/34/5 22/35/5
f 28/36/6 16/32/6 22/35/6 26/37/6
f 15/33/4 20/38/4 27/39/4 23/34/4
f 28/28/4 26/40/4 24/18/4
f 28/30/4 24/41/4 7/31/4
f 9/5/4 11/7/4 21/26/4 25/25/4
