# Blender v2.91.0 OBJ File: 'map.blend'
# www.blender.org
mtllib hill_01_90_convex.mtl
o hill_01_90_convex_Cube.007
v 2.000000 0.000000 -2.000000
v 2.000000 0.300000 -2.300000
v 3.700000 0.300000 -4.000000
v 3.600000 0.300000 -2.400000
v 2.000000 0.300000 -2.900000
v 3.600000 0.300000 -3.400000
v 3.700000 0.300000 -2.600000
v 4.000000 0.000000 -4.000000
v 4.000000 0.000000 -2.700000
v 2.000000 0.300000 -4.000000
v 3.300000 0.300000 -2.300000
v 4.000000 0.000000 -2.000000
vt 0.833333 0.625000
vt 0.875000 0.625000
vt 0.875000 0.750000
vt 0.833333 0.750000
vt 0.833333 0.583333
vt 0.875000 0.583333
vt 0.625000 0.583333
vt 0.750000 0.583333
vt 0.625000 0.625000
vt 0.625000 0.500000
vt 0.750000 0.500000
vt 0.750000 0.541667
vt 0.625000 0.541667
vt 0.791667 0.583333
vt 0.791667 0.541667
vt 0.791667 0.625000
vt 0.750000 0.625000
vt 0.750000 0.750000
vn 0.0000 0.7071 0.7071
vn 0.0000 1.0000 0.0000
vn 0.7071 0.7071 0.0000
vn 0.7022 0.7022 0.1170
vn 0.6000 0.8000 0.0000
vn 0.1613 0.8602 0.4838
vn 0.4364 0.8729 0.2182
vn 0.6900 0.7187 -0.0862
usemtl Material
s off
f 11/1/1 2/2/1 1/3/1 12/4/1
f 10/5/2 5/6/2 2/2/2 11/1/2
f 9/7/3 7/8/3 12/9/3
f 8/10/4 3/11/4 6/12/4
f 8/13/5 6/12/5 9/7/5
f 6/12/2 10/14/2 7/8/2
f 3/11/2 10/15/2 6/12/2
f 7/8/2 10/14/2 11/16/2 4/17/2
f 4/17/6 11/16/6 12/18/6
f 12/9/7 7/8/7 4/17/7
f 9/7/8 6/12/8 7/8/8
