# Blender v2.91.0 OBJ File: 'map.blend'
# www.blender.org
mtllib hill_01_straight.mtl
o hill_01_straight_Cube.006
v -1.000000 0.000000 -2.000000
v 1.000000 0.300000 -2.300000
v -1.000000 0.300000 -2.300000
v 1.000000 0.000000 -2.000000
v -1.000000 0.300000 -4.000000
v 1.000000 0.300000 -4.000000
v -0.166667 0.300000 -2.200000
vt 0.708333 0.625000
vt 0.791667 0.625000
vt 0.791667 0.750000
vt 0.708333 0.500000
vt 0.625000 0.625000
vt 0.791667 0.500000
vt 0.625000 0.750000
vt 0.708333 0.750000
vn -0.0845 0.7046 0.7046
vn 0.0000 1.0000 0.0000
vn 0.0605 0.7058 0.7058
vn 0.0000 0.5547 0.8321
usemtl Material
s off
f 7/1/1 3/2/1 1/3/1
f 6/4/2 7/1/2 2/5/2
f 6/4/2 5/6/2 3/2/2 7/1/2
f 2/5/3 7/1/3 4/7/3
f 7/1/4 1/3/4 4/8/4
