# Blender v2.91.0 OBJ File: 'map.blend'
# www.blender.org
mtllib hill_01_end.mtl
o hill_01_end_Cube.051
v 7.000000 0.000000 -4.000000
v 5.000000 0.300000 -3.700000
v 5.000000 0.000000 -2.000000
v 6.700000 0.300000 -3.500000
v 5.000000 0.000000 -4.000000
v 6.000000 0.000000 -2.000000
v 6.700000 0.300000 -3.000000
v 7.000000 0.000000 -2.000000
v 6.400000 0.300000 -3.700000
v 6.300000 0.300000 -2.300000
v 6.500000 0.000000 -2.000000
v 6.600000 0.300000 -2.400000
v 5.000000 0.300000 -2.300000
vt 0.812500 0.625000
vt 0.875000 0.625000
vt 0.875000 0.750000
vt 0.812500 0.750000
vt 0.781250 0.500000
vt 0.750000 0.500000
vt 0.781250 0.500000
vt 0.781250 0.750000
vt 0.625000 0.500000
vt 0.750000 0.561159
vt 0.625000 0.561159
vt 0.756983 0.561159
vt 0.750000 0.625000
vt 0.781250 0.625000
vt 0.750000 0.750000
vt 0.812500 0.500000
vt 0.812500 0.500000
vt 0.755800 0.593080
vt 0.750000 0.593080
vt 0.781250 0.593080
vn 0.0000 0.7071 0.7071
vn 0.2540 0.8890 -0.3810
vn 0.7071 0.7071 0.0000
vn 0.0000 1.0000 0.0000
vn 0.0763 0.7884 0.6104
vn 0.0000 0.7071 -0.7071
vn 0.5386 0.8378 0.0898
usemtl Material
s off
f 10/1/1 13/2/1 3/3/1 6/4/1
f 9/5/2 4/6/2 1/7/2
f 10/1/1 6/4/1 11/8/1
f 1/9/3 4/6/3 7/10/3 8/11/3
f 4/6/4 9/12/4 7/10/4
f 12/13/5 10/14/5 11/8/5 8/15/5
f 2/16/6 9/5/6 5/17/6
f 7/10/4 9/12/4 10/18/4 12/19/4
f 8/11/7 7/10/7 12/19/7
f 5/17/6 9/5/6 1/7/6
f 10/18/4 9/5/4 2/16/4 13/20/4
