# Blender v2.91.0 OBJ File: 'map.blend'
# www.blender.org
mtllib hill_01_X.mtl
o hill_01_X_Cube.041
v 20.000000 0.000000 -4.000000
v 22.000000 0.300000 -2.300000
v 20.000000 0.000000 -2.000000
v 21.700001 0.300000 -2.000000
v 22.000000 0.000000 -2.000000
v 22.000000 0.000000 -4.000000
v 22.000000 0.300000 -3.700000
v 21.700001 0.300000 -4.000000
v 20.000000 0.300000 -3.700000
v 20.300001 0.300000 -4.000000
v 20.000000 0.300000 -2.300000
v 20.299999 0.300000 -2.000000
vt 0.810096 0.500000
vt 0.820711 0.500000
vt 0.810096 0.509879
vt 0.750000 0.562500
vt 0.625000 0.562500
vt 0.792550 0.661496
vt 0.810096 0.676546
vt 0.750000 0.750000
vt 0.810096 0.562500
vt 0.862113 0.500000
vt 0.861941 0.562500
vt 0.875000 0.510940
vt 0.875000 0.500000
vt 0.875000 0.551156
vt 0.875000 0.562500
vn 0.5774 0.5774 -0.5773
vn 0.0000 1.0000 0.0000
vn 0.5774 0.5774 0.5773
vn -0.5773 0.5774 -0.5773
vn -0.5774 0.5774 0.5773
usemtl Material
s off
f 6/1/1 8/2/1 7/3/1
f 7/3/2 8/2/2 4/4/2 2/5/2
f 2/6/3 4/7/3 5/8/3
f 4/9/2 8/2/2 10/10/2 12/11/2
f 9/12/4 10/10/4 1/13/4
f 12/11/5 11/14/5 3/15/5
f 12/11/2 10/10/2 9/12/2 11/14/2
