# Blender v2.91.0 OBJ File: 'map.blend'
# www.blender.org
mtllib hill_01_T.mtl
o hill_01_T_Cube.034
v 14.000000 0.300000 -4.000000
v 16.000000 0.300000 -2.300000
v 14.000000 0.300000 -2.000000
v 15.700000 0.300000 -2.000000
v 16.000000 0.000000 -2.000000
v 16.000000 0.000000 -4.000000
v 16.000000 0.300000 -3.700000
v 15.700000 0.300000 -4.000000
v 15.800000 0.300000 -2.200000
v 15.800000 0.300000 -3.800000
vt 0.810096 0.500000
vt 0.815403 0.504940
vt 0.810096 0.509879
vt 0.801323 0.669021
vt 0.750000 0.750000
vt 0.792550 0.661496
vt 0.820711 0.500000
vt 0.810096 0.676546
vt 0.875000 0.562500
vt 0.810096 0.562500
vt 0.875000 0.500000
vt 0.750000 0.562500
vt 0.687500 0.562500
vt 0.625000 0.562500
vn 0.3333 0.6667 -0.6667
vn 0.3333 0.6667 0.6667
vn 0.6667 0.6667 -0.3333
vn 0.6667 0.6667 0.3333
vn 0.0000 1.0000 0.0000
usemtl Material
s off
f 6/1/1 10/2/1 7/3/1
f 9/4/2 5/5/2 2/6/2
f 6/1/3 8/7/3 10/2/3
f 9/4/4 4/8/4 5/5/4
f 3/9/5 4/10/5 8/7/5 1/11/5
f 8/7/5 4/12/5 9/13/5 10/2/5
f 10/2/5 9/13/5 2/14/5 7/3/5
